<?xml version="1.0" encoding="utf-8"?>
<!-- Generator: Adobe Illustrator 27.0.0, SVG Export Plug-In . SVG Version: 6.00 Build 0)  -->
<svg version="1.1" id="Capa_1" xmlns="http://www.w3.org/2000/svg" xmlns:xlink="http://www.w3.org/1999/xlink" x="0px" y="0px"
	 viewBox="0 0 203.9 203.9" style="enable-background:new 0 0 203.9 203.9;" xml:space="preserve">
<style type="text/css">
	.st0{fill:#132620;}
	.st1{fill:#B68D40;}
</style>
<g>
	<g>
		<path class="st0" d="M75.4,87.8c-2.6-0.9-5.3-1.3-8.1-1.3c-0.5,0-0.9,0-1.4,0l1.4-3.9h14.9V71.8h-24v4.3l-6.2,17l-0.4,1.2l0.9,0.8
			l4.4,3.8l0.8,0.7l1-0.3c3.7-1.2,6.7-1.8,9-1.8c1.6,0,3.1,0.2,4.4,0.7c3.1,1.1,5.3,3,6.8,5.8c0.9,1.7,1.4,3.4,1.4,5.1
			c0,1.1-0.2,2.3-0.5,3.4c-0.9,3-2.7,5.2-5.5,6.7c-1.7,0.9-3.4,1.3-5.2,1.3c-1.1,0-2.2-0.2-3.4-0.6c-2.6-0.8-5-2.9-7.3-6.3l-1.3-1.9
			l-1.5,1.7l-5.1,5.7l-1,1.1l0.9,1.2c3.4,4.6,7.5,7.7,12.1,9.1c2.2,0.7,4.5,1.1,6.7,1.1c3.5,0,6.9-0.9,10.2-2.6
			c5.4-2.9,9-7.3,10.8-13.2c0.7-2.2,1-4.4,1-6.6c0-3.5-0.9-7-2.7-10.3C85.5,93.5,81.1,89.8,75.4,87.8L75.4,87.8z"/>
		<path class="st0" d="M115.8,71.8c-5.9,0-11.1,2.1-15.3,6.3c-4.2,4.2-6.3,9.3-6.3,15.3v17.1c0,5.9,2.1,11.1,6.3,15.3
			c4.2,4.2,9.3,6.3,15.3,6.3s11.1-2.1,15.3-6.3s6.3-9.3,6.3-15.3V93.4c0-5.9-2.1-11.1-6.3-15.3C126.9,73.9,121.8,71.8,115.8,71.8z
			 M105.2,93.4c0-2.9,1-5.4,3.1-7.5c2.1-2.1,4.6-3.1,7.5-3.1s5.4,1,7.5,3.1c2.1,2.1,3.1,4.5,3.1,7.5v17.1c0,3-1,5.4-3.1,7.5
			c-2.1,2.1-4.6,3.1-7.5,3.1s-5.4-1-7.5-3.1c-2.1-2.1-3.1-4.5-3.1-7.5V93.4z"/>
		<polygon class="st0" points="144.1,93.5 142.3,93.5 142.3,95.3 142.3,129.4 142.3,131.2 144.1,131.2 151.3,131.2 153.1,131.2 
			153.1,129.4 153.1,95.3 153.1,93.5 151.3,93.5 		"/>
		<path class="st0" d="M147.7,90.7c1.9,0,3.5-0.7,4.8-2c1.4-1.3,2-3,2-4.9s-0.7-3.5-2-4.9c-1.3-1.3-3-2-4.8-2s-3.5,0.7-4.8,2
			c-1.4,1.3-2,3-2,4.9s0.7,3.6,2,4.9C144.2,90,145.9,90.7,147.7,90.7z"/>
	</g>
	<g>
		<path class="st0" d="M29.3,120c-1.4-5.8-2.2-11.8-2.2-18.1s0.8-12.3,2.2-18.1c8.4-41.6,45.1-73,89.2-73c20.8,0,40,7,55.3,18.7
			C155.4,11.3,130,0,101.9,0C45.6,0,0,45.6,0,101.9s45.6,101.9,101.9,101.9c28,0,53.4-11.3,71.9-29.7
			c-15.3,11.7-34.5,18.7-55.3,18.7C74.4,192.9,37.7,161.6,29.3,120z"/>
		<path class="st1" d="M118,16c-24.4,0-46.5,10.2-62.1,26.5c12.9-10.2,29.3-16.4,47-16.4c41.8,0,75.7,33.9,75.7,75.7
			s-33.9,75.7-75.7,75.7c-17.8,0-34.1-6.1-47-16.4c15.6,16.3,37.7,26.5,62.1,26.5c46.7,0,84.7-37.3,85.9-83.7c0-0.7,0-1.5,0-2.2
			s0-1.5,0-2.2C202.7,53.3,164.7,16,118,16z"/>
	</g>
</g>
</svg>
