<?xml version="1.0" encoding="utf-8"?>
<!-- Generator: Adobe Illustrator 27.0.0, SVG Export Plug-In . SVG Version: 6.00 Build 0)  -->
<svg version="1.1" id="Capa_2_00000082346992224280701190000011133209656767849146_"
	 xmlns="http://www.w3.org/2000/svg" xmlns:xlink="http://www.w3.org/1999/xlink" x="0px" y="0px" viewBox="0 0 270.5 270.5"
	 style="enable-background:new 0 0 270.5 270.5;" xml:space="preserve">
<style type="text/css">
	.st0{fill:#FFFFFF;}
</style>
<g id="Capa_1-2">
	<g>
		<g>
			<path class="st0" d="M100,116.5c-3.4-1.2-7-1.8-10.7-1.8c-0.6,0-1.3,0-1.9,0.1l1.8-5.2h19.7V95.3H77v5.7l-8.2,22.6l-0.6,1.5
				l1.2,1.1l5.8,5l1,0.9l1.3-0.4c4.9-1.6,8.9-2.3,12-2.3c2.2,0,4.1,0.3,5.9,0.9c4.1,1.4,7.1,3.9,9.1,7.7c1.2,2.2,1.8,4.6,1.8,6.8
				c0,1.5-0.2,3-0.7,4.5c-1.2,4-3.6,6.9-7.3,8.9c-2.2,1.2-4.5,1.8-6.8,1.8c-1.4,0-3-0.2-4.5-0.7c-3.4-1-6.7-3.8-9.8-8.4l-1.7-2.5
				l-2,2.3l-6.8,7.5l-1.3,1.4l1.2,1.6c4.5,6.1,9.9,10.2,16.1,12.1c3,0.9,6,1.4,8.9,1.4c4.7,0,9.2-1.2,13.6-3.5
				c7.1-3.9,11.9-9.7,14.3-17.5c0.9-2.9,1.3-5.8,1.3-8.8c0-4.7-1.2-9.3-3.6-13.7C113.5,124,107.7,119.1,100,116.5L100,116.5z"/>
			<path class="st0" d="M153.6,95.3c-7.9,0-14.7,2.8-20.3,8.4c-5.6,5.6-8.4,12.4-8.4,20.3v22.6c0,7.9,2.8,14.7,8.4,20.3
				c5.6,5.6,12.4,8.4,20.3,8.4s14.7-2.8,20.3-8.4c5.6-5.6,8.4-12.4,8.4-20.3v-22.6c0-7.9-2.8-14.7-8.4-20.3
				C168.4,98.1,161.5,95.3,153.6,95.3z M139.6,123.9c0-3.9,1.4-7.2,4.1-9.9c2.8-2.8,6-4.1,10-4.1s7.2,1.3,10,4.1
				c2.8,2.8,4.1,6,4.1,9.9v22.6c0,3.9-1.4,7.2-4.1,10c-2.8,2.8-6.1,4.1-10,4.1s-7.2-1.4-10-4.1c-2.8-2.8-4.1-6-4.1-10V123.9z"/>
			<polygon class="st0" points="191.2,124.1 188.8,124.1 188.8,126.5 188.8,171.7 188.8,174.1 191.2,174.1 200.8,174.1 203.2,174.1 
				203.2,171.7 203.2,126.5 203.2,124.1 200.8,124.1 			"/>
			<path class="st0" d="M196,120.3c2.5,0,4.6-0.9,6.4-2.6c1.8-1.8,2.7-3.9,2.7-6.5s-0.9-4.7-2.7-6.5c-1.8-1.7-3.9-2.6-6.4-2.6
				s-4.6,0.9-6.4,2.6c-1.8,1.8-2.7,3.9-2.7,6.5s0.9,4.7,2.7,6.5C191.4,119.4,193.5,120.3,196,120.3z"/>
		</g>
		<g>
			<path class="st0" d="M38.9,159.2c-1.9-7.7-2.9-15.7-2.9-23.9s1-16.3,2.9-23.9C50,56.1,98.8,14.5,157.2,14.5
				c27.6,0,53,9.3,73.4,24.8C206.1,15,172.5,0,135.2,0C60.5,0,0,60.5,0,135.2s60.5,135.2,135.2,135.2c37.2,0,70.9-15,95.4-39.3
				c-20.3,15.6-45.8,24.8-73.4,24.8C98.8,256,50,214.4,38.9,159.2z"/>
			<path class="st0" d="M156.5,21.2c-32.4,0-61.6,13.5-82.4,35.2c17.1-13.6,38.8-21.7,62.4-21.7c55.5,0,100.5,45,100.5,100.5
				s-45,100.5-100.5,100.5c-23.6,0-45.2-8.1-62.4-21.7c20.8,21.7,50,35.2,82.4,35.2c62,0,112.4-49.5,114-111.1c0-1,0-2,0-2.9
				s0-2,0-2.9C268.9,70.7,218.5,21.2,156.5,21.2z"/>
		</g>
	</g>
</g>
</svg>
