<?xml version="1.0" encoding="UTF-8"?>
<svg id="Capa_2" data-name="Capa 2" xmlns="http://www.w3.org/2000/svg" viewBox="0 0 270.5 270.5">
  <defs>
    <style>
      .cls-1 {
        fill: #fff;
      }

      .cls-2 {
        fill: #b68d40;
      }
    </style>
  </defs>
  <g id="Capa_1-2" data-name="Capa 1">
    <g>
      <g>
        <path class="cls-1" d="M99.99,116.5c-3.4-1.19-7.01-1.79-10.72-1.79-.63,0-1.26,.02-1.88,.06l1.81-5.15h19.71v-14.34h-31.88v5.71l-8.19,22.6-.56,1.53,1.23,1.07,5.78,5.04,1.01,.88,1.28-.41c4.89-1.55,8.92-2.34,11.96-2.34,2.15,0,4.13,.31,5.87,.93,4.09,1.42,7.05,3.93,9.06,7.67,1.19,2.25,1.8,4.55,1.8,6.83,0,1.48-.24,2.99-.72,4.51-1.22,4.03-3.59,6.93-7.27,8.89-2.22,1.16-4.52,1.76-6.84,1.76-1.45,0-2.97-.24-4.52-.73-3.39-1.01-6.66-3.84-9.75-8.41l-1.7-2.52-2.04,2.26-6.76,7.5-1.3,1.44,1.15,1.56c4.48,6.1,9.91,10.16,16.12,12.06,2.98,.93,5.99,1.4,8.93,1.4,4.66,0,9.22-1.17,13.56-3.47,7.13-3.85,11.93-9.72,14.3-17.46,.9-2.89,1.35-5.84,1.35-8.75,0-4.7-1.2-9.31-3.57-13.71-3.76-7.08-9.56-12.01-17.24-14.64Z"/>
        <path class="cls-1" d="M153.64,95.27c-7.87,0-14.69,2.83-20.26,8.4-5.58,5.57-8.4,12.39-8.4,20.26v22.63c0,7.87,2.83,14.69,8.4,20.26,5.57,5.58,12.39,8.4,20.26,8.4s14.73-2.83,20.31-8.4c5.58-5.57,8.4-12.39,8.4-20.26v-22.63c0-7.87-2.83-14.69-8.4-20.26-5.57-5.58-12.41-8.4-20.31-8.4Zm-14.09,28.67c0-3.91,1.35-7.16,4.13-9.93,2.78-2.77,6.04-4.12,9.96-4.12s7.22,1.35,10,4.12c2.78,2.77,4.13,6.02,4.13,9.93v22.63c0,3.94-1.35,7.2-4.13,9.97-2.79,2.77-6.06,4.12-10,4.12s-7.17-1.35-9.96-4.12c-2.78-2.77-4.13-6.03-4.13-9.97v-22.63Z"/>
        <polygon class="cls-1" points="191.21 124.07 188.83 124.07 188.83 126.46 188.83 171.69 188.83 174.07 191.21 174.07 200.79 174.07 203.17 174.07 203.17 171.69 203.17 126.46 203.17 124.07 200.79 124.07 191.21 124.07"/>
        <path class="cls-1" d="M195.98,120.3c2.49,0,4.65-.88,6.43-2.62,1.8-1.75,2.71-3.93,2.71-6.47s-.91-4.71-2.71-6.47c-1.78-1.74-3.95-2.62-6.43-2.62s-4.6,.88-6.38,2.62c-1.8,1.76-2.71,3.93-2.71,6.47s.91,4.72,2.71,6.47c1.78,1.74,3.93,2.62,6.38,2.62Z"/>
      </g>
      <g>
        <path class="cls-1" d="M38.88,159.2c-1.88-7.68-2.88-15.7-2.88-23.95s1-16.27,2.88-23.95C49.99,56.08,98.76,14.5,157.25,14.5c27.59,0,53.02,9.26,73.35,24.84C206.15,15.03,172.46,0,135.25,0,60.55,0,0,60.55,0,135.25s60.55,135.25,135.25,135.25c37.21,0,70.9-15.03,95.35-39.34-20.33,15.57-45.76,24.84-73.35,24.84-58.49,0-107.26-41.58-118.37-96.8Z"/>
        <path class="cls-2" d="M156.5,21.25c-32.39,0-61.63,13.51-82.38,35.21,17.14-13.59,38.81-21.71,62.38-21.71,55.5,0,100.5,45,100.5,100.5s-45,100.5-100.5,100.5c-23.57,0-45.24-8.12-62.38-21.71,20.75,21.69,49.99,35.21,82.38,35.21,61.98,0,112.4-49.46,113.96-111.06,.02-.98,.04-1.96,.04-2.94s-.02-1.96-.04-2.94c-1.56-61.6-51.99-111.06-113.96-111.06Z"/>
      </g>
    </g>
  </g>
</svg>