<?xml version="1.0" standalone="no"?>
<!DOCTYPE svg PUBLIC "-//W3C//DTD SVG 20010904//EN"
 "http://www.w3.org/TR/2001/REC-SVG-20010904/DTD/svg10.dtd">
<svg version="1.0" xmlns="http://www.w3.org/2000/svg"
 width="700.000000pt" height="700.000000pt" viewBox="0 0 700.000000 700.000000"
 preserveAspectRatio="xMidYMid meet">
<metadata>
Created by potrace 1.14, written by Peter Selinger 2001-2017
</metadata>
<g transform="translate(0.000000,700.000000) scale(0.100000,-0.100000)"
fill="#000000" stroke="none">
<path d="M3278 6995 c-1 -1 -41 -5 -88 -9 -47 -4 -101 -9 -120 -12 -139 -19
-252 -40 -360 -66 -69 -16 -135 -31 -147 -34 -40 -8 -264 -84 -367 -126 -135
-54 -353 -160 -449 -220 -43 -26 -81 -48 -84 -48 -5 0 -214 -140 -223 -150 -3
-3 -43 -34 -90 -70 -90 -69 -111 -86 -198 -165 -352 -320 -662 -745 -837
-1145 -25 -58 -50 -114 -55 -125 -45 -93 -150 -427 -176 -560 -2 -11 -10 -54
-19 -95 -29 -147 -35 -192 -52 -370 -15 -162 -8 -591 12 -711 2 -13 6 -46 9
-74 47 -408 239 -953 466 -1318 30 -48 60 -95 65 -105 24 -42 133 -191 208
-285 200 -248 433 -468 692 -653 61 -44 120 -84 130 -91 11 -6 56 -34 100 -61
285 -177 705 -346 1040 -418 74 -16 211 -41 274 -50 25 -3 57 -8 71 -10 163
-25 682 -25 842 1 13 2 46 7 73 10 72 10 86 12 120 19 17 3 44 8 60 11 339 64
717 203 1030 378 179 100 460 297 583 408 107 97 151 139 147 139 -2 0 -53
-33 -112 -74 -181 -123 -388 -235 -578 -310 -38 -16 -79 -32 -90 -37 -84 -36
-373 -116 -500 -138 -33 -6 -69 -13 -81 -15 -12 -2 -45 -7 -75 -11 -30 -4 -65
-9 -79 -10 -404 -52 -913 1 -1333 139 -381 125 -796 362 -1078 616 -40 36
-227 221 -259 256 -227 248 -454 612 -579 926 -85 216 -164 502 -201 728 -7
41 -14 83 -16 93 -24 133 -25 561 0 693 2 10 7 39 11 64 3 25 8 56 11 70 2 14
15 77 30 140 14 63 27 122 29 130 13 63 65 228 107 340 114 307 280 600 486
859 83 104 78 99 203 227 301 309 594 511 1024 704 60 28 222 84 350 123 103
32 319 77 440 93 27 3 61 8 75 10 48 6 265 18 340 18 73 0 314 -12 355 -18 11
-1 45 -6 75 -10 30 -4 78 -11 105 -16 28 -5 66 -12 85 -15 150 -25 444 -117
630 -198 214 -92 504 -259 609 -351 42 -37 11 4 -37 47 -25 23 -50 47 -56 52
-6 6 -38 33 -71 60 -32 28 -70 59 -83 70 -120 103 -401 281 -597 380 -314 159
-717 290 -1015 330 -19 3 -46 7 -60 10 -13 2 -54 7 -90 11 -36 3 -78 8 -95 11
-33 5 -531 13 -537 8z"/>
<path d="M3848 6445 c-2 -1 -37 -6 -78 -9 -277 -24 -623 -110 -855 -212 -334
-146 -595 -311 -830 -525 -157 -143 -158 -146 -25 -57 158 105 143 96 291 172
205 106 481 204 649 232 14 2 34 6 46 9 12 3 39 7 60 10 21 4 50 8 64 11 158
26 568 26 730 -1 14 -2 41 -6 60 -9 168 -27 360 -81 538 -152 770 -307 1354
-976 1555 -1779 19 -77 38 -162 42 -189 3 -27 8 -52 9 -55 2 -3 7 -42 11 -86
4 -44 9 -93 11 -110 5 -37 5 -385 0 -393 -2 -4 -7 -41 -10 -82 -9 -92 -15
-140 -31 -220 -3 -14 -7 -34 -9 -45 -2 -11 -14 -57 -25 -102 -203 -792 -780
-1453 -1537 -1761 -161 -66 -424 -141 -554 -158 -25 -3 -54 -8 -65 -10 -93
-19 -479 -26 -625 -11 -232 22 -453 77 -720 178 -93 36 -338 166 -445 238 -66
44 -131 88 -145 97 -24 16 46 -54 135 -135 63 -57 172 -143 265 -208 76 -53
108 -74 209 -134 246 -147 634 -294 901 -342 246 -45 331 -52 600 -51 192 0
326 7 370 19 8 2 38 7 65 10 28 4 66 10 85 15 19 5 51 11 70 14 19 3 80 17
135 32 951 248 1724 963 2042 1889 19 55 36 107 38 115 2 8 13 47 23 85 11 39
26 97 33 130 7 33 13 62 14 65 2 9 24 144 30 180 27 192 28 567 0 775 -98 734
-472 1412 -1035 1878 -123 102 -113 94 -206 159 -276 191 -582 334 -899 422
-117 32 -323 74 -405 81 -36 4 -92 10 -125 15 -53 7 -450 11 -457 5z"/>
<path d="M2002 4530 c-4 -3 -8 -37 -9 -77 -1 -65 -13 -103 -112 -378 -123
-337 -120 -316 -48 -372 23 -18 56 -45 72 -60 75 -68 65 -65 131 -44 32 10 73
22 89 26 17 4 39 9 50 12 51 13 208 15 253 3 151 -42 253 -136 302 -279 55
-165 -18 -355 -171 -444 -198 -114 -402 -50 -556 175 l-48 70 -55 -59 c-30
-33 -71 -77 -90 -99 -19 -21 -54 -60 -77 -85 l-43 -46 47 -59 c130 -161 228
-233 396 -290 302 -103 656 11 842 271 147 206 188 463 109 693 -90 259 -289
444 -559 516 -33 9 -106 19 -161 23 l-102 6 20 59 c12 36 28 62 39 66 10 4
126 7 258 6 l240 -1 0 184 c-1 101 -4 184 -8 184 -22 4 -804 3 -809 -1z"/>
<path d="M3895 4529 c-51 -6 -81 -13 -160 -32 -28 -7 -130 -59 -172 -88 -117
-80 -227 -215 -276 -339 -50 -126 -53 -167 -51 -595 1 -209 4 -391 8 -404 69
-283 233 -470 501 -572 72 -27 237 -40 340 -26 196 26 388 147 505 317 53 78
76 128 102 217 22 76 23 91 23 493 0 450 -2 464 -60 596 -128 290 -445 470
-760 433z m192 -389 c117 -38 226 -157 247 -272 12 -66 7 -704 -5 -756 -22
-87 -101 -186 -182 -228 -110 -58 -272 -50 -370 17 -53 37 -102 94 -133 156
l-29 58 -3 358 c-4 401 0 429 63 522 52 76 138 135 222 153 51 11 142 7 190
-8z"/>
<path d="M4971 4333 c-109 -52 -161 -177 -120 -287 56 -149 226 -204 356 -114
111 75 132 237 46 338 -72 83 -185 109 -282 63z"/>
<path d="M4888 3783 c-3 -7 -2 -1206 1 -1268 1 -20 7 -20 185 -20 l183 0 -1
645 -1 645 -182 3 c-100 1 -183 -1 -185 -5z"/>
</g>
</svg>
