<?xml version="1.0" encoding="UTF-8"?>
<svg width="93px" height="33px" viewBox="0 0 93 33" version="1.1" xmlns="http://www.w3.org/2000/svg" xmlns:xlink="http://www.w3.org/1999/xlink">
    <!-- Generator: Sketch 46.2 (44496) - http://www.bohemiancoding.com/sketch -->
    <title>log copy</title>
    <desc>Created with Sketch.</desc>
    <defs></defs>
    <g id="servicios" stroke="none" stroke-width="1" fill="none" fill-rule="evenodd">
        <g id="Desktop-Copy" transform="translate(-48.000000, -21.000000)">
            <g id="log-copy" transform="translate(48.000000, 21.000000)">
                <g id="Group">
                    <g transform="translate(32.437411, 4.931034)" id="Shape" fill="#22303B">
                        <path d="M5.83500554,0.0189655172 L4.5673366,0.0189655172 C4.36227251,0.0189655172 4.25041937,0.151724138 4.25041937,0.360344828 L4.25041937,5.42413793 L1.92014559,0.265517241 C1.88286121,0.151724138 1.78965026,0 1.58458617,0 L0.521981326,0 C0.335559424,0 0.205064092,0.132758621 0.205064092,0.34137931 L0.205064092,10.1275862 C0.205064092,10.3362069 0.335559424,10.4689655 0.521981326,10.4689655 L1.78965026,10.4689655 C1.99471435,10.4689655 2.10656749,10.3362069 2.10656749,10.1275862 L2.10656749,5.08275862 L4.41819908,10.2413793 C4.45548346,10.3551724 4.54869441,10.5068966 4.75375851,10.5068966 L5.81636335,10.5068966 C6.00278525,10.5068966 6.13328058,10.3741379 6.13328058,10.1655172 L6.13328058,0.360344828 C6.15192277,0.151724138 6.02142744,0.0189655172 5.83500554,0.0189655172 Z"></path>
                        <path d="M11.2039563,0.0189655172 L9.58208577,0.0189655172 C8.16527932,0.0189655172 7.40094952,0.815517241 7.40094952,2.23793103 L7.40094952,8.26896552 C7.40094952,9.71034483 8.18392151,10.487931 9.58208577,10.487931 L11.2039563,10.487931 C12.6207628,10.487931 13.3850926,9.69137931 13.3850926,8.26896552 L13.3850926,2.23793103 C13.3850926,0.796551724 12.6021206,0.0189655172 11.2039563,0.0189655172 Z M11.3344517,2.59827586 L11.3344517,7.90862069 C11.3344517,8.23103448 11.1853141,8.38275862 10.8683969,8.38275862 L9.95492958,8.38275862 C9.63801234,8.38275862 9.48887482,8.23103448 9.48887482,7.90862069 L9.48887482,2.59827586 C9.48887482,2.27586207 9.63801234,2.12413793 9.95492958,2.12413793 L10.8683969,2.12413793 C11.1853141,2.12413793 11.3344517,2.27586207 11.3344517,2.59827586 Z"></path>
                        <path d="M18.3998417,0.0189655172 L16.7779712,0.0189655172 C15.3611647,0.0189655172 14.5968349,0.815517241 14.5968349,2.23793103 L14.5968349,4.77931034 C14.5968349,5.10172414 14.7459725,5.32931034 15.0628897,5.42413793 L18.4371261,6.54310345 L18.4371261,7.94655172 C18.4371261,8.26896552 18.2879886,8.42068966 17.9710714,8.42068966 L17.1880994,8.42068966 C16.8711821,8.42068966 16.7220446,8.26896552 16.7220446,7.94655172 L16.7220446,7.33965517 C16.7220446,7.11206897 16.5915493,6.99827586 16.3864852,6.99827586 L14.9323944,6.99827586 C14.7086881,6.99827586 14.5968349,7.13103448 14.5968349,7.33965517 L14.5968349,8.28793103 C14.5968349,9.72931034 15.3798069,10.5068966 16.7779712,10.5068966 L18.3998417,10.5068966 C19.8166482,10.5068966 20.580978,9.71034483 20.580978,8.28793103 L20.580978,5.51896552 C20.580978,5.19655172 20.4318405,4.96896552 20.1335654,4.87413793 L16.7220446,3.75517241 L16.7220446,2.59827586 C16.7220446,2.29482759 16.8898243,2.12413793 17.1880994,2.12413793 L17.9897136,2.12413793 C18.3066308,2.12413793 18.4557683,2.27586207 18.4557683,2.59827586 L18.4557683,3.20517241 C18.4557683,3.4137931 18.5862636,3.54655172 18.7913277,3.54655172 L20.2454186,3.54655172 C20.4691249,3.54655172 20.580978,3.4137931 20.580978,3.20517241 L20.580978,2.23793103 C20.580978,0.796551724 19.8166482,0.0189655172 18.3998417,0.0189655172 Z"></path>
                        <path d="M25.4652318,0.0189655172 L23.8433613,0.0189655172 C22.4265548,0.0189655172 21.662225,0.815517241 21.662225,2.23793103 L21.662225,8.26896552 C21.662225,9.71034483 22.445197,10.487931 23.8433613,10.487931 L25.4652318,10.487931 C26.8820383,10.487931 27.6463681,9.69137931 27.6463681,8.26896552 L27.6463681,2.23793103 C27.6463681,0.796551724 26.8633961,0.0189655172 25.4652318,0.0189655172 Z M25.5957272,2.59827586 L25.5957272,7.90862069 C25.5957272,8.23103448 25.4465897,8.38275862 25.1296724,8.38275862 L24.2162051,8.38275862 C23.8992879,8.38275862 23.7501503,8.23103448 23.7501503,7.90862069 L23.7501503,2.59827586 C23.7501503,2.27586207 23.8992879,2.12413793 24.2162051,2.12413793 L25.1296724,2.12413793 C25.4465897,2.12413793 25.5957272,2.27586207 25.5957272,2.59827586 Z"></path>
                        <path d="M29.0258902,10.5068966 L33.611869,10.5068966 C33.8355752,10.5068966 33.9474284,10.3741379 33.9474284,10.1655172 L33.9474284,8.70517241 C33.9474284,8.47758621 33.8169331,8.3637931 33.611869,8.3637931 L30.871467,8.3637931 L30.871467,0.398275862 C30.871467,0.170689655 30.7409717,0.0568965517 30.5359076,0.0568965517 L29.0445324,0.0568965517 C28.8394683,0.0568965517 28.7089729,0.189655172 28.7089729,0.398275862 L28.7089729,10.1844828 C28.6903307,10.3741379 28.8021839,10.5068966 29.0258902,10.5068966 Z"></path>
                        <path d="M36.9115366,10.5068966 L38.5334072,10.5068966 C39.9502136,10.5068966 40.7145434,9.71034483 40.7145434,8.28793103 L40.7145434,2.23793103 C40.7145434,0.796551724 39.9315715,0.0189655172 38.5334072,0.0189655172 L36.9115366,0.0189655172 C35.4947302,0.0189655172 34.7304004,0.815517241 34.7304004,2.23793103 L34.7304004,8.26896552 C34.7304004,9.71034483 35.5133724,10.5068966 36.9115366,10.5068966 Z M36.8369679,7.90862069 L36.8369679,2.59827586 C36.8369679,2.27586207 36.9861054,2.12413793 37.3030226,2.12413793 L38.21649,2.12413793 C38.5334072,2.12413793 38.6825447,2.27586207 38.6825447,2.59827586 L38.6825447,7.90862069 C38.6825447,8.23103448 38.5334072,8.38275862 38.21649,8.38275862 L37.3030226,8.38275862 C36.9674632,8.38275862 36.8369679,8.23103448 36.8369679,7.90862069 Z"></path>
                        <path d="M3.97078652,12.687931 L2.34891597,12.687931 C0.932109511,12.687931 0.167779712,13.4844828 0.167779712,14.9068966 L0.167779712,17.4482759 C0.167779712,17.7706897 0.316917234,17.9982759 0.633834467,18.0931034 L4.0080709,19.212069 L4.0080709,20.6155172 C4.0080709,20.937931 3.85893338,21.0896552 3.54201614,21.0896552 L2.75904415,21.0896552 C2.44212692,21.0896552 2.2929894,20.937931 2.2929894,20.6155172 L2.2929894,20.0086207 C2.2929894,19.7810345 2.16249407,19.6672414 1.95742997,19.6672414 L0.503339136,19.6672414 C0.279632853,19.6672414 0.167779712,19.8 0.167779712,20.0086207 L0.167779712,20.9568966 C0.167779712,22.3982759 0.950751701,23.1758621 2.34891597,23.1758621 L3.97078652,23.1758621 C5.38759297,23.1758621 6.15192277,22.3793103 6.15192277,20.9568966 L6.15192277,18.2068966 C6.15192277,17.8844828 6.00278525,17.6568966 5.70451021,17.562069 L2.2929894,16.4431034 L2.2929894,15.2862069 C2.2929894,14.9827586 2.46076911,14.812069 2.75904415,14.812069 L3.56065833,14.812069 C3.87757557,14.812069 4.02671309,14.9637931 4.02671309,15.2862069 L4.02671309,15.8931034 C4.02671309,16.1017241 4.15720842,16.2344828 4.36227251,16.2344828 L5.81636335,16.2344828 C6.04006963,16.2344828 6.15192277,16.1017241 6.15192277,15.8931034 L6.15192277,14.9258621 C6.15192277,13.4844828 5.36895078,12.687931 3.97078652,12.687931 Z"></path>
                        <path d="M11.2039563,12.687931 L9.58208577,12.687931 C8.16527932,12.687931 7.40094952,13.4844828 7.40094952,14.9068966 L7.40094952,20.937931 C7.40094952,22.3793103 8.18392151,23.1568966 9.58208577,23.1568966 L11.2039563,23.1568966 C12.6207628,23.1568966 13.3850926,22.3603448 13.3850926,20.937931 L13.3850926,14.9068966 C13.3850926,13.4844828 12.6021206,12.687931 11.2039563,12.687931 Z M11.3344517,15.2672414 L11.3344517,20.5775862 C11.3344517,20.9 11.1853141,21.0517241 10.8683969,21.0517241 L9.95492958,21.0517241 C9.63801234,21.0517241 9.48887482,20.9 9.48887482,20.5775862 L9.48887482,15.2672414 C9.48887482,14.9448276 9.63801234,14.7931034 9.95492958,14.7931034 L10.8683969,14.7931034 C11.1853141,14.812069 11.3344517,14.9637931 11.3344517,15.2672414 Z"></path>
                        <path d="M20.2454186,12.687931 L14.9510366,12.687931 C14.7273303,12.687931 14.6154771,12.8206897 14.6154771,13.0293103 L14.6154771,22.8155172 C14.6154771,23.0431034 14.7459725,23.1568966 14.9510366,23.1568966 L16.4424118,23.1568966 C16.6474759,23.1568966 16.7779712,23.0241379 16.7779712,22.8155172 L16.7779712,19.287931 L19.3878778,19.287931 C19.6115841,19.287931 19.7234373,19.1551724 19.7234373,18.9465517 L19.7234373,17.4862069 C19.7234373,17.2775862 19.5929419,17.1448276 19.3878778,17.1448276 L16.7779712,17.1448276 L16.7779712,14.8689655 L20.2454186,14.8689655 C20.4504827,14.8689655 20.580978,14.7362069 20.580978,14.5275862 L20.580978,13.0672414 C20.580978,12.8206897 20.4504827,12.687931 20.2454186,12.687931 Z"></path>
                        <path d="M27.3108087,12.687931 L21.9977845,12.687931 C21.7927204,12.687931 21.662225,12.8206897 21.662225,13.0293103 L21.662225,14.4896552 C21.662225,14.6982759 21.7927204,14.8310345 21.9977845,14.8310345 L23.5637284,14.8310345 L23.5637284,22.7965517 C23.5637284,23.0241379 23.6942238,23.137931 23.8992879,23.137931 L25.3906631,23.137931 C25.6143694,23.137931 25.7262225,23.0051724 25.7262225,22.7965517 L25.7262225,14.8310345 L27.2921665,14.8310345 C27.5158728,14.8310345 27.6277259,14.6982759 27.6277259,14.4896552 L27.6277259,13.0293103 C27.6463681,12.8206897 27.5158728,12.687931 27.3108087,12.687931 Z"></path>
                        <path d="M38.6266181,12.8017241 C38.5706916,12.7448276 38.4774806,12.6689655 38.3097009,12.6689655 L36.948821,12.6689655 C36.7064725,12.6689655 36.5759772,12.7827586 36.5386928,13.0482759 L35.8489318,18.737931 L34.5253363,13.0103448 C34.4694097,12.8017241 34.3202722,12.6689655 34.0965659,12.6689655 L33.220383,12.6689655 C32.9966767,12.6689655 32.8475392,12.7827586 32.7916126,13.0103448 L31.4866593,18.737931 L30.8341826,13.0482759 C30.7968982,12.8017241 30.6477607,12.6689655 30.4240544,12.6689655 L29.0818167,12.6689655 C28.914037,12.6689655 28.8208261,12.7448276 28.7648995,12.8017241 C28.7089729,12.8586207 28.6716886,12.9534483 28.6903307,13.1051724 L30.0139263,22.7775862 C30.0512106,23.0241379 30.2003482,23.1568966 30.4426966,23.1568966 L32.0272828,23.1568966 C32.1764203,23.1568966 32.3814844,23.1 32.4560532,22.7965517 L33.6864377,17.2775862 L34.8981801,22.7965517 C34.9727489,23.0810345 35.1778129,23.1568966 35.3269505,23.1568966 L36.8742523,23.1568966 C37.1166007,23.1568966 37.2657382,23.0241379 37.3030226,22.7965517 L38.6825447,13.1051724 C38.7198291,12.9724138 38.6639025,12.8586207 38.6266181,12.8017241 Z"></path>
                        <path d="M43.6972939,12.9913793 C43.6600095,12.8017241 43.5295142,12.687931 43.3430923,12.687931 L41.3483779,12.687931 C41.161956,12.687931 41.0314607,12.8017241 40.9941763,12.9724138 L38.6079759,22.7775862 C38.5706916,22.9293103 38.6079759,23.0051724 38.6452603,23.062069 C38.6825447,23.1189655 38.7571135,23.1758621 38.906251,23.1758621 L40.3230574,23.1758621 C40.5094793,23.1758621 40.6213325,23.062069 40.6586169,22.8913793 L41.0873872,21.1275862 L43.6227251,21.1275862 L44.0701377,22.8913793 C44.1074221,23.0810345 44.2379174,23.1948276 44.4056971,23.1948276 L45.8038614,23.1948276 C45.9343567,23.1948276 46.0275677,23.1568966 46.0834942,23.0810345 C46.1207786,23.0241379 46.158063,22.9482759 46.1207786,22.7965517 L43.6972939,12.9913793 Z M43.1007438,19.1931034 L41.5720842,19.1931034 L42.336414,15.8362069 L43.1007438,19.1931034 Z"></path>
                        <path d="M50.6881152,12.687931 L47.23931,12.687931 C47.0342459,12.687931 46.9037506,12.8206897 46.9037506,13.0293103 L46.9037506,22.8155172 C46.9037506,23.0241379 47.0342459,23.1568966 47.23931,23.1568966 L48.6561165,23.1568966 C48.8611806,23.1568966 48.9916759,23.0241379 48.9916759,22.8155172 L48.9916759,20.0655172 L50.0729229,20.0655172 L50.7440418,22.8534483 C50.7999683,23.1 50.9677481,23.1568966 51.0982434,23.1568966 L52.5150498,23.1568966 C52.6641874,23.1568966 52.7387561,23.1 52.7760405,23.0431034 C52.8133249,22.9862069 52.8506093,22.8913793 52.8133249,22.7586207 L52.0862795,19.6862069 C52.6082608,19.3258621 52.8692515,18.7 52.8692515,17.8465517 L52.8692515,14.9068966 C52.8878937,13.4844828 52.1049217,12.687931 50.6881152,12.687931 Z M50.7813262,15.2672414 L50.7813262,17.4862069 C50.7813262,17.8086207 50.6321886,17.9603448 50.3152714,17.9603448 L48.9916759,17.9603448 L48.9916759,14.812069 L50.3152714,14.812069 C50.6321886,14.812069 50.7813262,14.9637931 50.7813262,15.2672414 Z"></path>
                        <path d="M59.7295775,14.8689655 C59.9532837,14.8689655 60.0651369,14.7362069 60.0651369,14.5086207 L60.0651369,13.0482759 C60.0651369,12.8206897 59.9346416,12.7068966 59.7295775,12.7068966 L54.4351954,12.7068966 C54.2487735,12.7068966 54.099636,12.8586207 54.099636,13.0482759 L54.099636,22.8344828 C54.099636,23.0431034 54.2301313,23.1758621 54.4351954,23.1758621 L59.7295775,23.1758621 C59.9532837,23.1758621 60.0651369,23.0431034 60.0651369,22.8344828 L60.0651369,21.3741379 C60.0651369,21.1465517 59.9532837,21.0327586 59.7295775,21.0327586 L56.2807723,21.0327586 L56.2807723,19.0982759 L58.8720367,19.0982759 C59.0771008,19.0982759 59.2075961,18.9465517 59.2075961,18.737931 L59.2075961,17.2586207 C59.2075961,17.0310345 59.0771008,16.8982759 58.8720367,16.8982759 L56.2807723,16.8982759 L56.2807723,14.8689655 L59.7295775,14.8689655 L59.7295775,14.8689655 Z"></path>
                    </g>
                    <path d="M27.441304,4.26724138 L20.9165374,0.455172414 C20.3013451,0.0948275862 19.5556575,0.0948275862 18.9404653,0.455172414 L14.2239911,3.1862069 L9.50751701,0.455172414 C8.89232473,0.0948275862 8.12799494,0.0948275862 7.53144485,0.455172414 L1.02532046,4.26724138 C0.410128185,4.62758621 0.0372843804,5.29137931 0.0372843804,6.03103448 L0.0372843804,27.0258621 C0.0372843804,27.7465517 0.410128185,28.4103448 1.02532046,28.7896552 L7.53144485,32.6017241 C8.14663713,32.962069 8.91096693,32.962069 9.5261592,32.6017241 L14.2426333,29.8517241 L18.9591075,32.6017241 C19.5742997,32.962069 20.3386295,32.962069 20.9351796,32.6017241 L27.441304,28.7896552 C28.0564963,28.4293103 28.4293401,27.7655172 28.4293401,27.0258621 L28.4293401,6.01206897 C28.4293401,5.29137931 28.0564963,4.62758621 27.441304,4.26724138 Z M7.77379332,29.4155172 L3.59794271,26.9689655 C3.13188796,26.7034483 2.8522551,26.1913793 2.8522551,25.6603448 L2.8522551,7.39655172 C2.8522551,6.84655172 3.13188796,6.35344828 3.59794271,6.08793103 L7.75515113,3.64137931 C8.22120589,3.37586207 8.78047159,3.37586207 9.24652635,3.64137931 L19.1641715,9.42586207 C19.6302263,9.69137931 19.9098592,10.2034483 19.9098592,10.7344828 L19.9098592,22.3224138 C19.9098592,22.7017241 19.499731,22.9482759 19.1641715,22.7586207 L17.5236588,21.8103448 C17.2067416,21.6396552 17.0203197,21.2982759 17.0203197,20.937931 L17.0203197,12.4034483 C17.0203197,11.8534483 16.7406868,11.3603448 16.2746321,11.0758621 L9.00417788,6.80862069 C8.68726064,6.63793103 8.31441684,6.63793103 8.01614179,6.80862069 L6.46884001,7.73793103 C6.02142744,8.00344828 5.7231524,8.51551724 5.7231524,9.04655172 L5.7231524,23.9534483 C5.7231524,24.5034483 6.00278525,24.9965517 6.46884001,25.262069 L11.3903782,28.1827586 L9.24652635,29.4155172 C8.79911378,29.6810345 8.23984808,29.6810345 7.77379332,29.4155172 Z M19.1828137,29.4155172 L9.24652635,23.612069 C8.78047159,23.3465517 8.50083874,22.8534483 8.50083874,22.3034483 L8.50083874,10.7155172 C8.50083874,10.3362069 8.91096693,10.0896552 9.24652635,10.2793103 L10.8870391,11.2275862 C11.2039563,11.3982759 11.3903782,11.7396552 11.3903782,12.1 L11.3903782,20.6344828 C11.3903782,21.1844828 11.6700111,21.6775862 12.1360658,21.9431034 L19.4251622,26.2293103 C19.7420794,26.4189655 20.1149232,26.4 20.4318405,26.2293103 L21.9791423,25.2810345 C22.4265548,25.0155172 22.7061877,24.5034483 22.7061877,23.9724138 L22.7061877,9.06551724 C22.7061877,8.51551724 22.4265548,8.02241379 21.9605001,7.75689655 L17.0389619,4.87413793 L19.1828137,3.64137931 C19.6488685,3.37586207 20.2081342,3.37586207 20.674189,3.64137931 L24.8500396,6.08793103 C25.3160943,6.35344828 25.5957272,6.86551724 25.5957272,7.39655172 L25.5957272,25.6413793 C25.5957272,26.1913793 25.3160943,26.6844828 24.8500396,26.95 L20.674189,29.3965517 C20.2267764,29.6810345 19.6488685,29.6810345 19.1828137,29.4155172 Z" id="Shape" fill="#D50032"></path>
                </g>
            </g>
        </g>
    </g>
</svg>