<svg width="100%" height="auto" viewBox="0 0 181 42" version="1.1"
                             xmlns="http://www.w3.org/2000/svg" xmlns:xlink="http://www.w3.org/1999/xlink">
                            <g id="Inicio" stroke="none" stroke-width="1" fill="none" fill-rule="evenodd">
                                <g id="Desktop" transform="translate(-99.000000, -40.000000)" fill-rule="nonzero">
                                    <g id="logo_midel-copy" transform="translate(99.000000, 40.000000)">
                                        <path d="M4.02730721,1.48369565 C4.07307206,1.14130435 4.1874842,0.867391304 4.41630847,0.616304348 C4.64513274,0.365217391 4.96548673,0.251086957 5.37737042,0.251086957 L15.1252845,0.251086957 C15.8117573,0.251086957 16.2694058,0.616304348 16.4753477,1.32391304 L24.1409608,26.8434783 L31.8752212,1.32391304 C32.1269279,0.616304348 32.6074589,0.251086957 33.3168142,0.251086957 L42.9503161,0.251086957 C43.2935525,0.251086957 43.591024,0.365217391 43.8656131,0.593478261 C44.1402023,0.82173913 44.3003793,1.11847826 44.3232617,1.48369565 C44.9868521,8.08043478 45.6504425,14.6315217 46.3369153,21.1141304 C47.0233881,27.5967391 47.6869785,34.1478261 48.3505689,40.7445652 L48.3505689,40.8815217 C48.3505689,41.6119565 47.9386852,41.9771739 47.1149178,41.9771739 L39.1518331,41.9771739 C38.2823009,41.9771739 37.8475348,41.5663043 37.8017699,40.7445652 L35.3533502,19.0141304 L29.0149178,40.8815217 C28.969153,41.0641304 28.8318584,41.2923913 28.6030341,41.5663043 C28.3742099,41.8402174 28.1453856,41.9543478 27.9165613,41.9543478 L20.4797724,41.9543478 C20.2509482,41.9543478 20.0221239,41.8173913 19.7704172,41.5663043 C19.5187105,41.3152174 19.3814159,41.0869565 19.3585335,40.8815217 L13.0201011,19.0826087 L10.5716814,40.7445652 C10.5259166,41.5663043 10.068268,41.9771739 9.19873578,41.9771739 L1.21276865,41.9771739 C0.411883692,41.9771739 0,41.5663043 0,40.7445652 L4.02730721,1.48369565 Z"
                                              id="Shape" fill="#333333"></path>
                                        <path d="M54.9864728,1.48369565 C54.9864728,1.14130435 55.0780025,0.867391304 55.2839444,0.616304348 C55.4898862,0.365217391 55.7873578,0.251086957 56.1992415,0.251086957 L64.4369153,0.251086957 C64.7115044,0.251086957 65.008976,0.365217391 65.32933,0.593478261 C65.6496839,0.82173913 65.8098609,1.11847826 65.8098609,1.48369565 L65.8098609,40.5391304 C65.8098609,41.3608696 65.3522124,41.7717391 64.4369153,41.7717391 L56.1992415,41.7717391 C55.3754741,41.7717391 54.9635904,41.3608696 54.9635904,40.5391304 L54.9635904,1.48369565 L54.9864728,1.48369565 Z"
                                              id="Shape" fill="#333333"></path>
                                        <g id="Group" transform="translate(73.223767, 0.000000)">
                                            <path d="M0.137294564,1.48369565 C0.137294564,1.14130435 0.2517067,0.867391304 0.457648546,0.616304348 C0.663590392,0.365217391 0.983944374,0.251086957 1.39582807,0.251086957 L9.77079646,0.251086957 C10.0453856,0.251086957 10.3657396,0.365217391 10.6860936,0.593478261 C11.0064475,0.82173913 11.1666245,1.11847826 11.1666245,1.48369565 L11.1666245,40.5391304 C11.1666245,41.3608696 10.708976,41.7717391 9.77079646,41.7717391 L1.39582807,41.7717391 C0.549178255,41.7717391 0.137294564,41.3608696 0.137294564,40.5391304 L0.137294564,1.48369565 Z"
                                                  id="Shape" fill="#9E005D"></path>
                                            <path d="M35.9025284,15.4304348 C35.399115,13.65 34.6668774,11.9836957 33.7515803,10.4315217 C32.8362832,8.87934783 31.7150442,7.48695652 30.4107459,6.23152174 C29.1064475,4.97608696 27.6648546,3.90326087 26.0859671,3.01304348 C24.5070796,2.12282609 22.81378,1.43804348 20.9831858,0.935869565 C19.1525917,0.456521739 17.2762326,0.205434783 15.3083439,0.205434783 L1.48735777,0.205434783 C1.05259166,0.205434783 0.732237674,0.319565217 0.526295828,0.570652174 C0.320353982,0.82173913 0.205941846,1.11847826 0.205941846,1.52934783 L0.205941846,9.54130435 C0.205941846,9.92934783 0.526295828,10.248913 0.915297092,10.248913 L14.7362832,10.248913 C16.2694058,10.248913 17.7109987,10.5228261 19.0610619,11.0478261 C20.4111252,11.5728261 21.6010114,12.326087 22.6078382,13.2847826 C23.614665,14.2434783 24.4155499,15.3847826 25.010493,16.6858696 C25.6054362,18.0097826 25.9029077,19.4478261 25.9029077,21 C25.9029077,22.4608696 25.651201,23.8304348 25.1249052,25.0858696 C24.5986094,26.3413043 23.8892541,27.4141304 22.9968394,28.35 C22.0815424,29.2630435 21.0289507,30.0163043 19.816182,30.5869565 C18.6034134,31.1576087 17.299115,31.5 15.8804046,31.6141304 C15.4685209,31.6597826 15.0566372,31.6826087 14.6447535,31.7054348 C14.2328698,31.7282609 13.8209861,31.751087 13.38622,31.751087 L1.07547408,31.751087 C0.59494311,31.751087 0.205941846,32.1391304 0.205941846,32.6413043 L0.205941846,40.5847826 C0.205941846,41.0641304 0.34323641,41.3836957 0.59494311,41.5434783 C0.84664981,41.7032609 1.16700379,41.7717391 1.48735777,41.7717391 L15.3083439,41.7717391 C17.2762326,41.7717391 19.1754741,41.5434783 21.0060683,41.0641304 C22.8366625,40.5847826 24.5299621,39.9228261 26.1088496,39.0326087 C27.687737,38.1652174 29.12933,37.0923913 30.4336283,35.8369565 C31.7379267,34.5815217 32.8591656,33.1891304 33.7744627,31.6597826 C34.7126422,30.1304348 35.4219975,28.4641304 35.9254109,26.6836957 C36.4288243,24.9032609 36.680531,23.0315217 36.680531,21.0456522 C36.680531,19.1054348 36.4288243,17.2336957 35.9025284,15.4304348 Z"
                                                  id="Shape" fill="#ED1E79"></path>
                                        </g>
                                        <path d="M116.082554,1.55217391 C116.082554,1.16413043 116.196966,0.844565217 116.402908,0.616304348 C116.60885,0.388043478 116.929204,0.273913043 117.318205,0.273913043 L145.120354,0.273913043 C145.532238,0.273913043 145.852592,0.388043478 146.081416,0.639130435 C146.31024,0.890217391 146.424652,1.20978261 146.424652,1.62065217 L146.424652,8.53695652 C146.424652,8.85652174 146.31024,9.15326087 146.081416,9.45 C145.852592,9.74673913 145.532238,9.88369565 145.097472,9.88369565 L126.928824,9.88369565 L126.928824,16.8228261 L140.93287,16.8228261 C141.298989,16.8228261 141.573578,16.9141304 141.825284,17.073913 C142.054109,17.2336957 142.168521,17.5304348 142.168521,17.9184783 L142.168521,23.9673913 C142.168521,24.2184783 142.076991,24.4695652 141.871049,24.7206522 C141.665107,24.9717391 141.367636,25.0858696 140.978635,25.0858696 L126.928824,25.0858696 L126.928824,32.1847826 L145.761062,32.1847826 C146.607712,32.1847826 147.019595,32.6184783 147.019595,33.4630435 L147.019595,40.4934783 C147.019595,40.676087 146.950948,40.8358696 146.790771,40.9956522 C146.722124,41.5206522 146.333123,41.7717391 145.64665,41.7717391 L117.318205,41.7717391 C116.952086,41.7717391 116.654614,41.6804348 116.42579,41.475 C116.196966,41.2695652 116.082554,40.9728261 116.082554,40.5619565 L116.082554,1.55217391 L116.082554,1.55217391 Z"
                                              id="Shape" fill="#333333"></path>
                                        <path d="M153.495322,1.46086957 C153.495322,1.11847826 153.609735,0.844565217 153.838559,0.593478261 C154.067383,0.342391304 154.364855,0.22826087 154.753856,0.22826087 L163.037295,0.22826087 C163.357649,0.22826087 163.65512,0.342391304 163.906827,0.570652174 C164.158534,0.798913043 164.31871,1.09565217 164.31871,1.46086957 L164.31871,31.8652174 L179.741466,31.8652174 C180.084703,31.8652174 180.359292,31.9793478 180.610999,32.2076087 C180.862705,32.4358696 180.977118,32.7326087 180.977118,33.1206522 L180.977118,40.4706522 C180.977118,40.7902174 180.862705,41.0869565 180.656764,41.3380435 C180.450822,41.5891304 180.130468,41.748913 179.741466,41.748913 L154.730973,41.748913 C153.907206,41.748913 153.495322,41.3380435 153.495322,40.5163043 L153.495322,1.46086957 L153.495322,1.46086957 Z"
                                              id="Shape" fill="#333333"></path>
                                    </g>
                                </g>
                            </g>
                  </svg>