<?xml version="1.0" encoding="UTF-8" standalone="no"?>
<!-- Generator: Adobe Illustrator 22.0.1, SVG Export Plug-In . SVG Version: 6.00 Build 0)  -->

<svg
   xmlns:dc="http://purl.org/dc/elements/1.1/"
   xmlns:cc="http://creativecommons.org/ns#"
   xmlns:rdf="http://www.w3.org/1999/02/22-rdf-syntax-ns#"
   xmlns:svg="http://www.w3.org/2000/svg"
   xmlns="http://www.w3.org/2000/svg"
   xmlns:sodipodi="http://sodipodi.sourceforge.net/DTD/sodipodi-0.dtd"
   xmlns:inkscape="http://www.inkscape.org/namespaces/inkscape"
   version="1.1"
   id="Capa_1"
   x="0px"
   y="0px"
   viewBox="0 0 105 35.000001"
   xml:space="preserve"
   sodipodi:docname="logo.svg"
   width="105"
   height="35"
   inkscape:version="0.92.2 (unknown)"><metadata
     id="metadata29"><rdf:RDF><cc:Work
         rdf:about=""><dc:format>image/svg+xml</dc:format><dc:type
           rdf:resource="http://purl.org/dc/dcmitype/StillImage" /><dc:title></dc:title></cc:Work></rdf:RDF></metadata><defs
     id="defs27" /><sodipodi:namedview
     pagecolor="#ffffff"
     bordercolor="#666666"
     borderopacity="1"
     objecttolerance="10"
     gridtolerance="10"
     guidetolerance="10"
     inkscape:pageopacity="0"
     inkscape:pageshadow="2"
     inkscape:window-width="1920"
     inkscape:window-height="1056"
     id="namedview25"
     showgrid="false"
     inkscape:zoom="11.313708"
     inkscape:cx="54.110234"
     inkscape:cy="16.60593"
     inkscape:window-x="0"
     inkscape:window-y="173"
     inkscape:window-maximized="1"
     inkscape:current-layer="Capa_1" /><style
     type="text/css"
     id="style2">
	.st0{fill:#0000FF;}
	.st1{fill:#5500FF;}
	.st2{fill:#AA00FF;}
	.st3{fill:#FF00FF;}
</style><path
     d="m 16.726378,12.929795 h 5.04298 v 7.958448 c -2.206305,2.482095 -5.318763,3.703443 -9.258594,3.703443 -3.3094474,0 -6.0673317,-1.103157 -8.3130292,-3.270056 -2.2063059,-2.166906 -3.30945479,-4.924782 -3.30945479,-8.273637 0,-3.3094555 1.14254849,-6.1067309 3.42764559,-8.3130367 2.2851051,-2.206298 5.0429814,-3.3488466 8.2342384,-3.3488466 3.191262,0 6.027939,1.0637494 8.391835,3.1912561 L 18.341713,8.3202002 C 17.317355,7.4534409 16.411196,6.8230633 15.583829,6.5078824 14.756468,6.1926936 13.81091,5.9957036 12.825952,5.9957036 c -1.891117,0 -3.5064446,0.6303697 -4.8065836,1.9305166 -1.3001468,1.3001392 -1.9699162,2.9942668 -1.9699162,5.1217728 0,2.127507 0.6303698,3.821634 1.8911171,5.082375 1.2607473,1.260746 2.7578767,1.891116 4.4914027,1.891116 1.733519,0 3.191256,-0.31519 4.333804,-0.984959 z"
     id="path4"
     inkscape:connector-curvature="0"
     style="stroke-width:0.39398262" /><path
     d="m 40.404739,24.355296 h -4.491403 v -2.088107 c -1.221347,1.575928 -2.757884,2.324497 -4.609601,2.324497 -1.812318,0 -3.348847,-0.512179 -4.609594,-1.575936 -1.221347,-1.06375 -1.851718,-2.482087 -1.851718,-4.255014 0,-1.772917 0.630371,-3.073057 1.930518,-3.979224 1.300138,-0.866759 3.033664,-1.300139 5.279362,-1.300139 h 3.585245 v -0.07876 c 0,-1.851718 -0.984958,-2.757877 -2.915475,-2.757877 -0.82736,0 -1.733519,0.157591 -2.639677,0.512179 -0.945559,0.315189 -1.733528,0.748569 -2.363897,1.221348 L 25.551593,9.2657933 c 2.285096,-1.6547268 4.845983,-2.4820866 7.761459,-2.4820866 2.088106,0 3.821625,0.512171 5.121771,1.5759285 1.339539,1.0637486 2.009308,2.7184768 2.009308,4.9641828 z m -4.84599,-6.57951 v -0.827368 h -3.033667 c -1.930516,0 -2.876074,0.590979 -2.876074,1.812318 0,0.630378 0.236389,1.103157 0.669777,1.418337 0.47278,0.31519 1.103149,0.51218 1.969908,0.51218 0.866759,0 1.615327,-0.275789 2.245706,-0.78796 0.709169,-0.551578 1.02435,-1.260747 1.02435,-2.127507 z"
     id="path6"
     inkscape:connector-curvature="0"
     style="stroke-width:0.39398262" /><path
     d="m 49.229947,24.355296 -6.8159,-17.295843 h 5.003582 l 4.294406,10.873924 4.294412,-10.873924 h 5.003582 l -6.8159,17.295843 c 0,0 -4.964182,0 -4.964182,0 z"
     id="path8"
     inkscape:connector-curvature="0"
     style="stroke-width:0.39398262" /><path
     style="stroke-width:0.39398262"
     d="M 63.807305,4.8925545 C 63.255727,4.340976 62.979938,3.6712069 62.979938,2.8832388 c 0,-0.7879601 0.275789,-1.4577374 0.827367,-2.00930796 0.551571,-0.55157848 1.221347,-0.82736765 2.009308,-0.82736765 0.787967,0 1.457737,0.27578917 2.009316,0.82736765 0.55157,0.55157056 0.827359,1.22134786 0.827359,2.00930796 0,0.7879681 -0.275789,1.4577372 -0.827359,2.0093157 C 67.27435,5.4441251 66.60458,5.7199143 65.816613,5.7199143 64.989253,5.6805306 64.358876,5.4047255 63.807305,4.8925545 Z"
     id="path37" /><path
     style="stroke-width:0.39398262"
     d="m 68.219908,24.355296 h -4.80659 V 7.059453 h 4.80659 z"
     id="path10" /><path
     d="m 85.752133,18.957735 c 0,1.694119 -0.63037,3.073065 -1.891117,4.097415 -1.26074,1.024357 -2.836675,1.536536 -4.767184,1.536536 -1.300147,0 -2.639686,-0.23639 -4.018625,-0.709169 -1.378937,-0.47278 -2.639684,-1.142549 -3.742833,-2.048715 l 2.127507,-3.033667 c 1.812317,1.378938 3.703434,2.088108 5.752141,2.088108 0.63037,0 1.103149,-0.118191 1.457737,-0.35458 0.354582,-0.23639 0.551579,-0.590979 0.551579,-0.984958 0,-0.393981 -0.236389,-0.787969 -0.748567,-1.142549 -0.51218,-0.354588 -1.221349,-0.669769 -2.166908,-0.945558 -0.945558,-0.315189 -1.694127,-0.551579 -2.166906,-0.787969 -0.512179,-0.19699 -1.06375,-0.512171 -1.733518,-0.945559 -1.300147,-0.82736 -1.969916,-2.009308 -1.969916,-3.624635 0,-1.615328 0.630369,-2.8760756 1.930516,-3.9004338 1.300139,-1.0243496 2.954867,-1.4971288 4.964183,-1.4971288 2.048706,0 4.058014,0.6697693 6.10673,2.048708 l -1.812327,3.1912636 c -1.497128,-1.024357 -2.994265,-1.536536 -4.491402,-1.536536 -1.497129,0 -2.245697,0.39398 -2.245697,1.221347 0,0.433381 0.236389,0.787968 0.709168,1.06375 0.47278,0.275789 1.260749,0.551578 2.324497,0.906159 1.10315,0.354588 1.851717,0.590977 2.324497,0.787968 0.472779,0.19699 1.024358,0.472779 1.654728,0.866759 1.260747,0.787969 1.851717,2.009316 1.851717,3.703444 z"
     id="path12"
     inkscape:connector-curvature="0"
     style="stroke-width:0.39398262" /><path
     d="m 104.11172,24.355296 h -4.530797 v -2.088107 c -1.221341,1.575928 -2.757877,2.324497 -4.609594,2.324497 -1.812318,0 -3.348855,-0.512179 -4.609595,-1.575936 -1.221348,-1.06375 -1.851717,-2.482087 -1.851717,-4.255014 0,-1.772917 0.630369,-3.073057 1.930509,-3.979224 1.300146,-0.866759 3.033665,-1.300139 5.279371,-1.300139 h 3.585236 v -0.07876 c 0,-1.851718 -0.98495,-2.757877 -2.915466,-2.757877 -0.827368,0 -1.733527,0.157591 -2.639687,0.512179 -0.945558,0.315189 -1.733517,0.748569 -2.363896,1.221348 L 89.219178,9.2657933 c 2.285105,-1.6547268 4.845992,-2.4820866 7.761458,-2.4820866 2.088108,0 3.821634,0.512171 5.121784,1.5759285 1.33953,1.0637486 2.0093,2.7184768 2.0093,4.9641828 z m -4.845979,-6.57951 v -0.827368 h -3.033665 c -1.930517,0 -2.876076,0.590979 -2.876076,1.812318 0,0.630378 0.236391,1.103157 0.66977,1.418337 0.47278,0.31519 1.103149,0.51218 1.969917,0.51218 0.866759,0 1.615327,-0.275789 2.245697,-0.78796 0.709169,-0.551578 1.024357,-1.260747 1.024357,-2.127507 z"
     id="path14"
     inkscape:connector-curvature="0"
     style="stroke-width:0.39398262" /><path
     style="fill:#0000ff;stroke-width:0.39398262"
     d="M 0.88827997,29.752867 H 6.0888501 v 5.20057 H 0.88827997 Z"
     id="rect16" /><path
     style="fill:#5500ff;stroke-width:0.39398262"
     d="m 6.0888529,29.752867 h 5.2005701 v 5.20057 H 6.0888529 Z"
     id="rect18" /><path
     style="fill:#aa00ff;stroke-width:0.39398262"
     d="m 11.289413,29.752867 h 5.200571 v 5.20057 h -5.200571 z"
     id="rect20" /><path
     style="fill:#ff00ff;stroke-width:0.39398262"
     d="m 16.49,29.752867 h 5.20057 v 5.20057 H 16.49 Z"
     id="rect22" /></svg>