<?xml version="1.0" encoding="UTF-8"?>
<svg id="Capa_1" xmlns="http://www.w3.org/2000/svg" version="1.1" viewBox="0 0 347.4 48.5">
  <!-- Generator: Adobe Illustrator 30.1.0, SVG Export Plug-In . SVG Version: 2.1.1 Build 136)  -->
  <path d="M7.9,7.6v29.1h15.4v5H2V7.6h5.9Z"/>
  <path d="M55.3,33h-10.8l-2.5,8.7h-5.8L46.5,7.6h6.8l10.3,34.1h-5.8l-2.5-8.7ZM45.8,28.3h8.1c-1.9-6.5-3.2-11.6-3.9-15.8h-.2c-.8,4.2-2.1,9.3-4,15.8Z"/>
  <path d="M123.1,24.7l8.7,8.7-3.2,3.3-8.7-8.7-8.7,8.7-3.3-3.3,8.7-8.7-8.7-8.7,3.3-3.3,8.7,8.7,8.7-8.7,3.3,3.3-8.8,8.7Z"/>
  <path d="M176.2,26.8v-4.4c0-9.7,4.5-15.6,12.8-15.6s11.3,6.3,11.6,10.6l-5.9,1c-.2-3.1-1.6-6.9-5.9-6.9s-6.6,2.7-6.6,11.4v3.1c0,7.5,2,11.7,6.7,11.7s6.6-5,6.6-8.2v-1.5h-7.4v-4.5h12.7v18.1h-4.1l-.5-5c-1.4,3.6-4,5.8-8.6,5.8-7,.1-11.4-5.9-11.4-15.6Z"/>
  <path d="M231.1,33h-10.8l-2.4,8.7h-5.8l10.3-34.1h6.8l10.3,34.1h-5.8l-2.6-8.7ZM221.7,28.3h8.1c-1.9-6.5-3.2-11.6-3.9-15.7h-.2c-.8,4.1-2.1,9.2-4,15.7Z"/>
  <path d="M254.3,7.6v22.9c0,4.2,2.1,7,6.1,7s5.9-2.8,5.9-7V7.6h5.9v23c0,7.1-3.9,11.9-11.8,11.9s-12.1-4.8-12.1-11.9V7.6s6,0,6,0Z"/>
  <path d="M283.1,32.6l5.3-1.8c1,3.8,3.3,6.8,8,6.8s6-1,6-4.6-2.3-4.7-4.9-5.4l-4.6-1.2c-5-1.3-8.5-4.3-8.5-9.5s4.7-10,11.5-10,11,2.5,12.3,8.4l-5,2.6c-1.1-4.7-4.1-6.2-7.3-6.2s-5.5,2.3-5.5,4.6,1.9,4.2,4.7,5l4.5,1.2c4.8,1.3,8.9,3.5,8.9,9.8s-4,10.3-12.2,10.3c-7.4,0-11.7-4.1-13.2-10Z"/>
  <path d="M318.9,32.6l5.3-1.8c1,3.8,3.3,6.8,8,6.8s6-1,6-4.6-2.3-4.7-4.9-5.4l-4.6-1.2c-5-1.3-8.5-4.3-8.5-9.5s4.7-10,11.5-10,11,2.5,12.3,8.4l-5,2.6c-1.1-4.7-4.1-6.2-7.3-6.2s-5.5,2.3-5.5,4.6,1.9,4.2,4.7,5l4.5,1.2c4.8,1.3,8.9,3.5,8.9,9.8s-4,10.3-12.2,10.3c-7.4,0-11.7-4.1-13.2-10Z"/>
</svg>