<?xml version="1.0" encoding="UTF-8"?>
<svg id="Capa_1" xmlns="http://www.w3.org/2000/svg" version="1.1" viewBox="0 0 252.6 122.5">
  <!-- Generator: Adobe Illustrator 30.1.0, SVG Export Plug-In . SVG Version: 2.1.1 Build 136)  -->
  <defs>
    <style>
      .st0 {
        fill: #aa182c;
      }

      .st1 {
        fill: #f7be00;
      }

      .st2 {
        fill: #fff;
      }

      .st3 {
        fill: #201751;
      }
    </style>
  </defs>
  <path class="st3" d="M123.2,62.8c-.2,1-.4,1.9-.7,2.6-.3.7-.7,1.3-1,1.7-.3.4-.8.7-1.2.9-.6.3-1.3.4-2.2.4s-1.1,0-1.6-.2c0-.9,0-2.7,0-5.5v-2.3c.4,0,.8,0,1.4,0s1.2,0,1.6.2c.2,0,.3.2.4.4,0,.3.1.9.1,2h.8v-3.1s0-3.1,0-3.1h-.7c0,.8,0,1.4-.1,1.8,0,.1,0,.2-.1.3,0,0-.3,0-.6,0-.9,0-1.4,0-1.5,0-.4,0-.9,0-1.3,0h0c0,0,0-4.8,0-4.8,0-.8,0-1.5,0-2.2.6-.1,1.1-.2,1.6-.2,1.3,0,2.2.2,2.8.5.6.3,1.1.9,1.5,1.6.4.8.7,1.6.9,2.6.2,1,.3,2,.3,3.1s0,2.3-.3,3.3M125.9,54.9c-.2-.7-.4-1.4-.8-2-.3-.6-.7-1.1-1.2-1.6-.5-.4-1.1-.8-1.7-1-.7-.2-1.5-.3-2.6-.3s-1.1,0-1.9,0c-1.1,0-1.8,0-2.2,0h-3.3c0,0,0,1.1,0,1.1.7.1,1.1.2,1.1.3.1,0,.2,0,.2.2,0,0,0,.1,0,.2,0,.4.1,1.3.1,2.6v4.1s0,1.5,0,1.5v2c0,2.8,0,4.9-.1,6.1-.2.2-.4.4-.6.6-.1.1-.2.2-.3.2v.7h2.8c0,0,2.7,0,2.7,0,1.2,0,2.3-.2,3.2-.6.9-.4,1.7-1.1,2.4-2.1.7-.9,1.3-2.1,1.8-3.5.4-1.4.6-3,.6-4.8s-.1-2.7-.4-3.9"/>
  <path class="st3" d="M112.1,25.2v-1.2h3c0,0,1.2,0,1.2,0h1.2s.3,0,.3,0v1.2c-.7,0-1.1,0-1.3.3,0,0-.2.3-.2.5,0,.6-.1,1.9-.1,3.9v4.9c0,1.7,0,2.8,0,3.2,0,.9.2,1.6.4,2.1.2.5.6,1,1.1,1.3.5.3,1.1.5,1.8.5s1.5-.2,2-.7c.5-.4.9-1,1.1-1.7.2-.7.3-2.1.3-4.1v-2.9c0-2.5,0-4,0-4.5,0-1.2,0-1.9-.1-2.1,0-.1-.1-.3-.2-.3-.2-.2-.6-.3-1.3-.3v-1.2c1.1,0,1.8,0,2,0s.1,0,.2,0h2c0,0,0,1.1,0,1.1-.6,0-.9,0-1.1.2,0,0-.1.2-.2.4,0,.2,0,1.2-.1,2.9,0,1.7,0,3,0,4v3.3c0,.8,0,1.7-.1,2.6,0,.9-.2,1.7-.5,2.3-.2.6-.6,1.2-1,1.7-.4.5-1,.9-1.6,1.2-.6.3-1.3.4-2.1.4s-1.8-.2-2.6-.6c-.6-.3-1.1-.7-1.4-1.1-.4-.5-.7-1-.9-1.6-.2-.6-.3-1.2-.4-1.7,0-.3,0-1.3,0-2.7v-2.7s0-3.6,0-3.6c0-1.3,0-2.5,0-3.6,0-.4,0-.7-.1-.9,0-.1-.1-.2-.2-.4l-1.2-.2Z"/>
  <path class="st3" d="M126.9,42.5c.7,0,1.1-.1,1.2-.2,0,0,.1,0,.2-.2,0,0,0-.3.1-.5,0-.4,0-1.2.1-2.6,0-.8,0-1.8,0-3v-8.6c0-.7,0-1.1,0-1.3,0-.2,0-.4-.1-.5,0,0-.2-.2-.3-.2-.1,0-.5-.1-1.2-.2v-1.2c.8,0,1.3,0,1.7,0h1.3s.8,0,.8,0c1.3,2.5,2.8,5.4,4.6,8.7,1.3,2.4,2.4,4.2,3.2,5.6v-3.3c0-5.1,0-8-.1-8.9,0-.3,0-.6-.2-.7-.1-.2-.6-.3-1.4-.3v-1.2c.7,0,1.4,0,2.1,0s1.4,0,2.3,0v1.2c-.7,0-1.2.1-1.3.3,0,0,0,.1,0,.2,0,.5-.2,1.5-.2,3.2,0,1.7,0,2.9,0,3.7,0,6.3,0,10.1.1,11.4h-.1c-.5,0-1-.1-1.6-.2-2-3.4-4.8-8.5-8.4-15.3v7c0,1.5,0,3,0,4.6,0,1.1,0,1.8.1,2,0,.1,0,.2.1.3,0,0,.2.1.3.1.4,0,.7.1.9.1s0,0,.2,0v1.1c-1.2,0-1.8,0-2,0-.6,0-1.4,0-2.4,0v-1.2Z"/>
  <path class="st3" d="M148.6,24v1.2c-.6,0-1,0-1.1.1-.1,0-.2,0-.2.2,0,0,0,.1-.1.2,0,.2,0,.5,0,.9,0,.2,0,.7,0,1.4,0,2.3,0,3.6,0,3.7v8.3c0,1,0,1.6.1,1.9,0,.1,0,.2.1.3,0,0,.2.1.3.2.1,0,.5,0,1.1,0v1.2c-1,0-2.1,0-3.2,0s-1.9,0-2.6,0v-1.2c.6,0,1,0,1.1,0,.1,0,.2,0,.3-.2,0,0,0-.1,0-.2,0-.1,0-.6,0-1.3,0-1.1,0-2.2,0-3.1v-5.9c0-1.9,0-3.1,0-3.6,0-1.2,0-1.9-.1-2.2,0-.1,0-.2,0-.3,0,0-.1-.1-.2-.2-.1,0-.5,0-1.2-.1v-1.2c.8,0,1.7,0,2.7,0s2.2,0,3.2,0"/>
  <path class="st3" d="M156,43.8c-.5-2-1-3.9-1.5-5.6l-1.3-4.8c-1-3.8-1.6-6-1.9-6.7-.2-.7-.4-1.1-.5-1.2-.2-.1-.6-.2-1.1-.3v-1.2c1.5,0,2.4,0,2.7,0h3.3c0,0,0,1.1,0,1.1-.5,0-.9,0-1.1.1-.1,0-.2.1-.3.2,0,0,0,.2,0,.3,0,.3.2,1.2.6,2.7.2.9.4,1.3.4,1.4,0,0,0,.2,0,.3l2.3,8.7,2-7.8c0-.2.3-1.1.7-2.7.3-1.1.4-1.9.5-2.3,0-.1,0-.2,0-.3,0-.2,0-.3,0-.4,0,0,0-.1-.1-.2,0,0-.2,0-.3,0-.4,0-.7,0-1,0v-1.2h2.3c0,0,2,0,2,0v1.2c-.6,0-.9.2-1,.3-.2.2-.5,1.3-1,3.2l-.7,2.3-1.2,4.5c-1.1,3.9-1.8,6.6-2.1,8.2h-1.4Z"/>
  <path class="st3" d="M164.9,43.7v-.8c.4-.3.7-.5.9-.8,0-.4,0-1,0-1.9,0-1.6,0-2.8,0-3.5v-6.3c0-.2,0-1.2,0-2.8,0-1.1,0-1.7-.1-1.9,0,0,0-.2-.1-.2-.2-.1-.6-.2-1.3-.3v-1.2h2.1c.4,0,.8,0,1.2,0,.8,0,1.8,0,2.8,0h1.9c.2,0,.7,0,1.3,0,0,0,.2,0,.3,0v.2c0,0-.1,2-.1,2,0,.1,0,.8,0,2h-.7c0-1.1,0-1.8,0-2,0-.1,0-.2-.1-.3,0,0-.3-.2-.7-.2-.6-.1-1.2-.2-1.8-.2s-1.1,0-1.7,0c0,1.1-.1,2.4-.1,4v2.9c.4,0,.9,0,1.3,0s.6,0,1.5,0c.3,0,.5,0,.6,0,0,0,.1-.2.1-.3,0-.4.1-1,.1-1.8h.7v3.1s0,3.1,0,3.1h-.8c0-1.1,0-1.8-.1-2,0-.2-.2-.3-.4-.4-.4-.1-1-.2-1.6-.2s-1.1,0-1.5,0v6c0,.7,0,1.2,0,1.7.5,0,1.1,0,1.8,0s1.3,0,1.8,0c.6,0,.9-.2,1-.3,0,0,0-.1.1-.3.1-.5.2-1.3.3-2.6h.8c-.1,1.9-.2,3.4-.2,4.6v.2c-.5,0-1.1,0-1.8,0h-1.5c-1.5,0-2.5,0-3,0s-1.2,0-3.1,0"/>
  <path class="st3" d="M176,25.2v-1.2c.1,0,.6,0,1.5,0,.4,0,1,0,1.7,0s1.2,0,1.6,0c.8,0,1.4,0,1.9,0,1,0,1.7.1,2.2.3.5.2.9.7,1.2,1.3.3.7.5,1.5.5,2.4s-.2,2.2-.7,3.1c-.5.9-1.2,1.7-2.1,2.2.2.4.3.9.5,1.3.2.4.3.7.3.8,0,0,0,.2.1.3l1.4,3.3c.4.9.6,1.3.6,1.4.5.9.7,1.5.8,1.7.1.2.2.3.3.4,0,0,.3.1.6.1v1.2c-.9,0-1.6,0-2,0s-1,0-1.5,0c0-.2-.1-.5-.2-.8l-2-5c-.6-1.4-1-2.6-1.4-3.4-.2-.4-.4-.7-.6-.9v-.5c.8,0,1.4,0,1.8-.3.4-.3.7-.7.9-1.4.3-.7.4-1.5.4-2.3s-.1-1.6-.4-2.2c-.3-.6-.6-1-1-1.2-.3-.1-.7-.2-1.4-.2s-.6,0-.9.1c0,.3,0,1.1,0,2.3,0,2.7,0,4.4,0,5.3,0,1.4,0,2.9,0,4.5,0,1.9,0,3,0,3.3,0,.5,0,.9.1,1,0,0,0,.1.1.2,0,0,.1.1.3.1.1,0,.5,0,1.1,0v1.2c-1,0-2.1,0-3.2,0s-1.8,0-2.6,0v-1.2c.7,0,1.1,0,1.2-.2,0,0,.1,0,.2-.1,0,0,0-.2,0-.4,0-.4,0-.9,0-1.7v-4.1c0,0,0-5.2,0-5.2v-3c0-1.2,0-1.9-.1-2.1,0-.1,0-.2-.1-.2-.1-.1-.6-.2-1.4-.3"/>
  <path class="st3" d="M198.3,29.2h-.8c0-1.1,0-1.9,0-2.3-.2-.4-.5-.8-1-1.1-.5-.3-1-.5-1.6-.5-.8,0-1.5.3-1.9,1-.5.6-.7,1.4-.7,2.3,0,.6,0,1.1.2,1.5.1.4.3.7.6.9.2.2.6.4,1.1.6.4.1.8.3,1.5.4.6.2,1,.3,1.2.4.5.2.9.4,1.2.7.3.3.6.6.7,1,.2.4.3.8.4,1.4.1.6.2,1.2.2,1.9,0,1.2-.2,2.3-.5,3.2-.2.7-.6,1.3-1,1.9-.4.6-.9,1-1.3,1.3-.7.5-1.6.7-2.6.7s-1.4-.1-2-.3c-.6-.2-1.2-.6-1.9-1.1.2-1.1.3-2.7.3-4.9h.8c0,.7,0,1.5,0,2.5.2.6.6,1.1,1.2,1.5.6.4,1.2.7,1.8.7s1.1-.2,1.6-.5c.5-.3.8-.8,1-1.3.2-.6.3-1.2.3-1.9s0-1.1-.2-1.5c-.1-.4-.4-.8-.7-1-.3-.3-.8-.5-1.6-.8-1.1-.4-1.8-.6-2.2-.8-.5-.2-.9-.6-1.3-1.1-.3-.5-.6-1-.7-1.7-.2-.7-.2-1.4-.2-2.1s.1-2,.4-2.9c.3-.9.7-1.6,1.1-2.1.5-.5,1-.8,1.6-1.1.6-.2,1.2-.3,1.8-.3s1.3,0,1.9.3c.6.2,1.1.4,1.6.8v.3c0,.6,0,1.2-.1,1.8,0,.6,0,1.4,0,2.3"/>
  <path class="st3" d="M207,24v1.2c-.6,0-1,0-1.1.1-.1,0-.2,0-.2.2,0,0,0,.1-.1.2,0,.2,0,.5,0,.9,0,.2,0,.7,0,1.4,0,2.3,0,3.6,0,3.7v8.3c0,1,0,1.6.1,1.9,0,.1,0,.2.1.3,0,0,.1.1.3.2.1,0,.5,0,1.1,0v1.2c-1,0-2.1,0-3.2,0s-1.9,0-2.6,0v-1.2c.6,0,1,0,1.1,0,.1,0,.2,0,.3-.2,0,0,0-.1,0-.2,0-.1,0-.6,0-1.3,0-1.1,0-2.2,0-3.1v-5.9c0-1.9,0-3.1,0-3.6,0-1.2,0-1.9-.1-2.2,0-.1,0-.2,0-.3,0,0-.1-.1-.2-.2-.1,0-.5,0-1.2-.1v-1.2c.8,0,1.7,0,2.6,0s2.2,0,3.2,0"/>
  <path class="st3" d="M212.5,42c.6.1,1.1.2,1.6.2.8,0,1.5-.1,2.2-.4.5-.2.9-.5,1.2-.9.3-.4.7-.9,1-1.7.3-.7.6-1.6.7-2.6.2-1,.3-2.1.3-3.3s0-2.1-.3-3.1c-.2-1-.5-1.9-.9-2.6-.4-.8-.9-1.3-1.5-1.6-.6-.3-1.6-.5-2.8-.5s-1,0-1.6.2c0,1.3,0,3.9,0,7.5v3.2c0,2.8,0,4.7,0,5.5M208.8,43.7v-.7s.1-.1.3-.2c.2-.2.4-.4.6-.6,0-1.3.1-3.3.1-6.1v-2.3c0-1.2,0-3.1,0-5.5,0-1.3,0-2.2-.1-2.5,0,0,0-.2,0-.2,0,0-.1-.1-.2-.2-.1,0-.5-.1-1.2-.3v-1.1h3.3c.4,0,1.1,0,2.2,0,.8,0,1.4,0,1.9,0,1.1,0,1.9.1,2.6.3.7.2,1.2.5,1.7,1,.5.4.9,1,1.2,1.6.3.6.6,1.3.8,2,.3,1.2.4,2.5.4,3.9s-.2,3.4-.6,4.8c-.4,1.4-1,2.6-1.8,3.5-.7,1-1.6,1.6-2.4,2.1-.9.4-1.9.6-3.2.6h-2.7c0,0-2.8,0-2.8,0Z"/>
  <path class="st3" d="M227.7,36.1c.6,0,1.2,0,2,0s1.3,0,1.9,0l-2-7.3-1.9,7.3ZM223.7,43.7v-1.2c.5,0,.8-.1.9-.1s.2-.1.2-.2c0,0,.1-.2.2-.4,0-.2.3-.9.6-2.2.2-.6.5-1.7.9-3.5l2.4-9.1.8-3.2h1.3l4.1,14.7.6,1.9.4,1.3c0,.2.1.3.2.4,0,0,.1.1.2.2,0,0,.2,0,.5,0,0,0,.2,0,.4,0v1.2h-2.5c0,0-3.2,0-3.2,0v-1.2c.7,0,1.2-.1,1.3-.2,0,0,.1-.2.1-.4s0-.6-.2-1.2l-.8-3.1h-4.7l-.4,1.7c-.3,1.3-.5,2.1-.5,2.4s0,.4.1.5c.1.1.6.2,1.3.3v1.2h-2.1c0,0-2.1,0-2.1,0Z"/>
  <path class="st3" d="M242.7,42c.6.1,1.1.2,1.6.2.8,0,1.5-.1,2.2-.4.5-.2.9-.5,1.2-.9.3-.4.7-.9,1-1.7.3-.7.6-1.6.7-2.6.2-1,.3-2.1.3-3.3s0-2.1-.3-3.1c-.2-1-.5-1.9-.9-2.6-.4-.8-.9-1.3-1.5-1.6-.6-.3-1.6-.5-2.8-.5s-1,0-1.6.2c0,1.3,0,3.9,0,7.5v3.2c0,2.8,0,4.7,0,5.5M239,43.7v-.7s.1-.1.3-.2c.2-.2.4-.4.6-.6,0-1.3.1-3.3.1-6.1v-2.3c0-1.2,0-3.1,0-5.5,0-1.3,0-2.2-.1-2.5,0,0,0-.2,0-.2,0,0-.1-.1-.2-.2-.1,0-.5-.1-1.2-.3v-1.1h3.3c.4,0,1.1,0,2.2,0,.8,0,1.4,0,1.9,0,1.1,0,1.9.1,2.6.3.7.2,1.2.5,1.7,1,.5.4.9,1,1.2,1.6.3.6.6,1.3.8,2,.3,1.2.4,2.5.4,3.9s-.2,3.4-.6,4.8c-.4,1.4-1,2.6-1.8,3.5-.7,1-1.6,1.6-2.4,2.1-.9.4-1.9.6-3.2.6h-2.7c0,0-2.8,0-2.8,0Z"/>
  <path class="st3" d="M124.7,93.4l-.4,1.4c-.8.6-1.5,1-2.1,1.3-.6.2-1.4.3-2.3.3-1.3,0-2.4-.3-3.4-.9-.8-.5-1.4-1.2-2-2-.5-.8-1-1.7-1.3-2.7-.4-1.5-.7-3.1-.7-4.8,0-3,.7-5.4,2-7.3,1.3-1.9,3.2-2.8,5.6-2.8s1.6,0,2.2.3c.7.2,1.4.5,2.3,1v.2c0,.4-.1,1-.2,1.7,0,1.1-.2,2-.2,2.9h-.7c0-1,0-1.9,0-2.5-.4-.7-.9-1.1-1.4-1.5-.5-.3-1.2-.5-2-.5-1.4,0-2.6.7-3.4,2.1-.9,1.4-1.3,3.3-1.3,5.8s.1,2.8.4,4c.3,1.1.7,2.1,1.2,2.8.5.7,1,1.3,1.5,1.6.7.5,1.5.7,2.4.7s1.2-.1,1.8-.3c.6-.2,1.2-.6,1.8-1.1l.2.3Z"/>
  <path class="st3" d="M132.4,74.9h-1.1l2.2-4c.3-.6.6-1,.7-1.1.2-.2.4-.3.6-.3s.6.1.8.4c.2.3.3.6.3,1s0,.5-.2.7c-.2.3-.5.7-.9,1.1l-2.4,2.1ZM129,85.5c0,2.2.2,4,.6,5.4.4,1.4.9,2.4,1.5,3,.6.6,1.3.9,2.2.9s1.5-.3,2.1-.8c.6-.6,1.1-1.5,1.4-2.9.3-1.3.5-3,.5-4.9s0-2.5-.3-3.6c-.2-1.1-.5-2-.8-2.8-.3-.8-.8-1.4-1.2-1.8-.5-.4-1.1-.6-1.9-.6s-1.7.3-2.3,1c-.6.6-1.1,1.6-1.4,2.9-.3,1.3-.4,2.7-.4,4.2M126.2,86.3c0-1.7.2-3.2.5-4.5.3-1.3.8-2.4,1.5-3.3.6-.9,1.3-1.5,2.1-1.9.9-.5,2-.7,3.1-.7s2.1.2,3,.7c.7.4,1.3.9,1.8,1.6.5.7.9,1.4,1.2,2.1.3.7.5,1.5.6,2.4.1.9.2,1.8.2,2.9,0,1.8-.2,3.4-.6,4.9-.3,1.1-.7,2.1-1.3,3-.6.9-1.2,1.5-1.9,2-1,.6-2.1.9-3.4.9s-2.6-.4-3.5-1.1c-1-.8-1.8-1.9-2.3-3.4-.6-1.5-.8-3.4-.8-5.6"/>
  <path class="st3" d="M141.6,77.4v-1.2c.1,0,.6,0,1.5,0,.4,0,1,0,1.7,0s1.2,0,1.6,0c.8,0,1.4,0,1.9,0,1,0,1.7.1,2.2.3.5.2.9.7,1.2,1.3.3.7.5,1.5.5,2.4s-.2,2.2-.7,3.1c-.5.9-1.2,1.7-2.1,2.2.2.4.3.9.5,1.3.2.4.3.7.3.8,0,0,0,.2.1.3l1.4,3.3c.4.9.6,1.3.6,1.4.5.9.7,1.5.8,1.7.1.2.2.3.3.4,0,0,.3.1.6.1v1.2c-.9,0-1.6,0-2,0s-1,0-1.5,0c0-.2-.1-.5-.2-.8l-2-5c-.6-1.4-1-2.6-1.4-3.4-.2-.4-.4-.7-.6-.9v-.5c.8,0,1.4,0,1.8-.3.4-.3.7-.7.9-1.4.3-.7.4-1.5.4-2.3s-.1-1.6-.4-2.2c-.3-.6-.6-1-1-1.2-.3-.1-.7-.2-1.4-.2s-.6,0-.9.1c0,.3,0,1.1,0,2.3,0,2.7,0,4.4,0,5.3,0,1.4,0,2.9,0,4.5,0,1.9,0,3,0,3.3,0,.5,0,.9.1,1,0,0,0,.1.1.2,0,0,.1.1.3.1.1,0,.5,0,1.1,0v1.2c-1,0-2.1,0-3.2,0s-1.8,0-2.6,0v-1.2c.7,0,1.1,0,1.2-.2,0,0,.1,0,.2-.1,0,0,0-.2,0-.4,0-.4,0-.9,0-1.7v-4.1c0,0,0-5.2,0-5.2v-3c0-1.2,0-1.9-.1-2.1,0-.1,0-.2-.1-.2-.1-.1-.6-.2-1.4-.3"/>
  <path class="st3" d="M159.2,94.2c.6.1,1.1.2,1.6.2.8,0,1.5-.1,2.2-.4.5-.2.9-.5,1.2-.9.3-.4.7-.9,1-1.7.3-.7.6-1.6.7-2.6.2-1,.3-2.1.3-3.3s0-2.1-.3-3.1c-.2-1-.5-1.9-.9-2.6-.4-.8-.9-1.3-1.5-1.6-.6-.3-1.6-.5-2.8-.5s-1,0-1.6.2c0,1.3,0,3.9,0,7.5v3.2c0,2.8,0,4.7,0,5.5M155.6,96v-.7s.1-.1.3-.2c.2-.2.4-.4.6-.6,0-1.3.1-3.3.1-6.1v-2.3c0-1.2,0-3.1,0-5.5,0-1.3,0-2.2-.1-2.5,0,0,0-.2,0-.2,0,0-.1-.1-.2-.2-.1,0-.5-.1-1.2-.3v-1.1h3.3c.4,0,1.1,0,2.2,0,.8,0,1.4,0,1.9,0,1.1,0,2,.1,2.6.3.7.2,1.2.5,1.7,1,.5.4.9,1,1.2,1.6.3.6.6,1.3.8,2,.3,1.2.4,2.5.4,3.9s-.2,3.4-.6,4.8c-.4,1.4-1,2.6-1.8,3.5-.7,1-1.6,1.6-2.4,2.1-.9.4-1.9.6-3.2.6h-2.7c0,0-2.8,0-2.8,0Z"/>
  <path class="st3" d="M173.8,85.5c0,2.2.2,4,.6,5.4.4,1.4.9,2.4,1.5,3,.6.6,1.3.9,2.2.9s1.5-.3,2.1-.8c.6-.6,1.1-1.5,1.4-2.9.3-1.3.5-3,.5-4.9s0-2.5-.3-3.6c-.2-1.1-.5-2-.8-2.8-.3-.8-.8-1.4-1.2-1.8-.5-.4-1.1-.6-1.9-.6s-1.7.3-2.3,1c-.6.6-1.1,1.6-1.4,2.9-.3,1.3-.4,2.7-.4,4.2M171,86.3c0-1.7.2-3.2.5-4.5.3-1.3.8-2.4,1.5-3.3.6-.9,1.3-1.5,2.1-1.9.9-.5,2-.7,3.1-.7s2.1.2,3,.7c.7.4,1.3.9,1.8,1.6.5.7.9,1.4,1.2,2.1.3.7.5,1.5.6,2.4.1.9.2,1.8.2,2.9,0,1.8-.2,3.4-.6,4.9-.3,1.1-.7,2.1-1.3,3-.6.9-1.2,1.5-1.9,2-1,.6-2.1.9-3.4.9s-2.6-.4-3.5-1.1c-1-.8-1.8-1.9-2.3-3.4-.6-1.5-.8-3.4-.8-5.6"/>
  <path class="st3" d="M190.6,94.4c.2,0,.6,0,1.1,0s1.4-.4,1.8-1.1c.5-.8.7-1.9.7-3.3s-.1-1.8-.4-2.5c-.2-.6-.6-1.1-1-1.3-.4-.3-1-.4-1.7-.4s-.5,0-.7,0v8.1s0,.2,0,.4M190.6,84.4h.5c.4,0,.8,0,1.2-.1.4-.1.6-.3.9-.5.2-.3.4-.6.6-1.2.1-.5.2-1.1.2-1.8s0-1.3-.3-1.7c-.2-.5-.4-.8-.7-1-.3-.2-.7-.3-1.2-.3s-.8,0-1.1.1c0,.7,0,1.5,0,2.3v2.2s0,2,0,2ZM187.1,96v-.7c.3-.3.6-.6.8-.9,0-.5,0-1,0-1.7,0-1.4,0-3.9,0-7.5s0-2.5,0-4.5c0-1.6,0-2.5-.1-2.7,0-.1,0-.2-.1-.3-.1-.1-.6-.2-1.4-.3v-1.2c.1,0,.3,0,.4,0h1.3c.4,0,.9,0,1.6,0s1.1,0,1.4,0c.9,0,1.5,0,1.7,0,1,0,1.8.2,2.3.5.5.3.9.8,1.2,1.4.3.6.4,1.3.4,2s-.1,1.6-.4,2.3c-.3.7-.7,1.2-1.1,1.6-.3.2-.9.5-1.8.9,1.1.2,1.9.5,2.3.8.4.3.8.9,1.1,1.6.3.7.4,1.5.4,2.4s-.1,1.8-.4,2.5c-.3.8-.6,1.4-1,1.9-.4.5-.9,1-1.5,1.3-.6.3-1.2.5-2.1.5h-3.1c-.5,0-1.1,0-1.9,0"/>
  <path class="st3" d="M202.7,88.3c.6,0,1.2,0,2,0s1.3,0,1.9,0l-2-7.3-1.9,7.3ZM198.6,96v-1.2c.5,0,.8-.1.9-.1,0,0,.2-.1.2-.2,0,0,.1-.2.2-.4,0-.2.3-.9.6-2.2.2-.6.5-1.7.9-3.5l2.4-9.1.8-3.2h1.3l4.1,14.7.6,1.9.4,1.3c0,.2.1.3.2.4,0,0,.1.1.2.2,0,0,.2,0,.5,0,0,0,.2,0,.4,0v1.2h-2.5c0,0-3.2,0-3.2,0v-1.2c.7,0,1.2-.1,1.3-.2,0,0,.1-.2.1-.4s0-.6-.2-1.2l-.8-3.1h-4.7l-.4,1.7c-.3,1.3-.5,2.1-.5,2.4s0,.4.1.5c.1.1.6.2,1.3.3v1.2h-2.1c0,0-2.1,0-2.1,0Z"/>
  <path class="st0" d="M81.2,28.8c-2.3-2.9-5-5.5-8-7.8l-27.4,68.8,35.4-61.1Z"/>
  <path class="st0" d="M63.5,15.3c-3.5-1.5-7.1-2.5-11-3.1l-6.7,77.6L63.5,15.3Z"/>
  <path class="st0" d="M90.3,48.2c-.7-3.5-1.8-6.9-3.3-10.1l-41.2,51.8,44.5-41.6Z"/>
  <path class="st0" d="M89.8,68.1c.8-3.1,1.2-6.3,1.3-9.6l-45.3,31.4,44-21.8Z"/>
  <path class="st0" d="M5.5,36.4c-1.6,3.1-2.9,6.5-3.7,10l44.1,43.4L5.5,36.4Z"/>
  <path class="st0" d="M.5,56.7c0,.1,0,.3,0,.4,0,3.2.3,6.3,1,9.3l44.4,23.4L.5,56.7Z"/>
  <path class="st0" d="M20,19.9c-3.1,2.1-5.9,4.6-8.3,7.5l34.2,62.5L20,19.9Z"/>
  <path class="st0" d="M41.1,12c-3.9.4-7.6,1.3-11.1,2.6l15.8,75.2-4.7-77.8Z"/>
  <path class="st3" d="M45.8,99.3c-10.7,0-19.4-8.7-19.4-19.4s8.7-19.4,19.4-19.4,19.4,8.7,19.4,19.4-8.7,19.4-19.4,19.4"/>
  <path class="st1" d="M45.8,57.3c-12.5,0-22.6,10.2-22.6,22.6s10.2,22.6,22.6,22.6,22.6-10.2,22.6-22.6-10.2-22.6-22.6-22.6M45.8,63.8c8.9,0,16.1,7.2,16.1,16.1s-7.2,16.1-16.1,16.1-16.1-7.2-16.1-16.1,7.2-16.1,16.1-16.1"/>
  <path class="st3" d="M87.3,62.9c0,2.6-.5,4.9-1.2,5.2-.6.3-1.1.6-1.1.6l-32.5,17.2c-2.7,1.4-5,3.8-6.7,6.5-1.7-2.8-4-5.1-6.7-6.5L6.7,68.7l-1.1-.6c-.6-.3-1.1-2.7-1.2-5.2,0-2,0-4.3,0-6,0-22.9,18.6-41.5,41.5-41.5s41.5,18.6,41.5,41.5v6M45.8,0L0,24.2v74l45.8,24.2,45.8-24.2V24.2L45.8,0Z"/>
  <path class="st3" d="M62,79.9c0,8.9-7.2,16.1-16.1,16.1s-16.1-7.2-16.1-16.1,7.2-16.1,16.1-16.1,16.1,7.2,16.1,16.1"/>
  <path class="st2" d="M54.8,90.2c-3.7,2-6.8,7-6.8,11.2v14.9l39.3-20.8v-22.6l-32.5,17.2ZM36.9,90.2L4.4,73.1v22.6l39.3,20.8v-14.9c0-4.2-3-9.3-6.8-11.2"/>
</svg>