<?xml version="1.0" encoding="UTF-8"?>
<svg id="Capa_1" xmlns="http://www.w3.org/2000/svg" version="1.1" viewBox="0 0 227 77">
  <!-- Generator: Adobe Illustrator 30.1.0, SVG Export Plug-In . SVG Version: 2.1.1 Build 136)  -->
  <defs>
    <style>
      .st0, .st1 {
        fill: #00a3a5;
      }

      .st2 {
        fill: #50504f;
      }

      .st2, .st1 {
        fill-rule: evenodd;
      }

      .st3 {
        fill: #b2b2b2;
      }
    </style>
  </defs>
  <path class="st2" d="M0,53.1l19.5-18.5v11.6l12.3-11.6v27.1h-7.3v-11.7l-12.4,11.9v-11.5L0,61.6v-8.5Z"/>
  <path class="st1" d="M95.4,34.5l-19.4,17.7-5.9-5.5,12.9-12.2h-10.1l-11.6,10.8v-10.8h-20s-7.9,7.5-7.9,7.5v19.7h18.3v-6.8h-10.4v-3.4h10.4v-6.6h-10.4v-3.3h12,0v20.2h8v-6.5l3.9-3.6,10.7,10,18.4-17.3v7.2h-5.4l-7.1,6.6h12.5v3.5h8v-27.2h-6.9Z"/>
  <path class="st0" d="M111,54.3h-7.4v7.4h7.4v-7.4Z"/>
  <path class="st3" d="M224,55.2c-.2,0-.4,0-.6,0-1.3-.3-2.2-1.6-1.9-3,1-4.6.2-9.3-2.3-13.3-2.5-4-6.4-6.7-11-7.8-3.2-.7-6.4-.6-9.5.5-.9.3-1.9,0-2.5-.6-.7-.7-.9-1.6-.6-2.5.2-.5.3-1,.4-1.4,1.1-4.7.2-9.6-2.3-13.7-2.6-4.1-6.6-7-11.3-8-6.7-1.5-13.5.8-17.9,6.1-.9,1-2.4,1.2-3.4.3-1.3-1-2.8-1.7-4.4-2.1-5.9-1.3-11.8,2.4-13.2,8.3-.3,1.1-.3,2.3-.2,3.4,0,1-.4,1.9-1.2,2.4-.8.5-1.9.5-2.6,0-1-.7-2.1-1.2-3.3-1.4-2.6-.6-5.2-.1-7.4,1.3-2.2,1.4-3.8,3.6-4.4,6.1-.3,1.3-1.6,2.2-3,1.9-1.3-.3-2.2-1.6-1.9-3,.9-3.9,3.2-7.1,6.6-9.2,3.3-2.1,7.3-2.8,11.2-1.9.4.1.9.2,1.3.4,0-.3.1-.6.2-.9,2-8.6,10.5-14,19.1-12,1.6.4,3.1,1,4.5,1.8,5.6-5.5,13.6-7.8,21.3-6,6,1.4,11.1,5,14.4,10.2,2.9,4.6,4,9.9,3.4,15.2,2.7-.4,5.4-.3,8.1.3,5.9,1.3,10.9,4.9,14.1,10,3.2,5.1,4.2,11.1,2.9,17-.3,1.1-1.3,1.9-2.4,1.9h0Z"/>
  <path class="st3" d="M132.2,45.7c-.5-.4-1.1-.7-1.8-1-.7-.3-1.3-.4-2-.4-.9,0-1.7.2-2.4.6-.7.3-1.4.8-1.9,1.3-.5.5-1,1.2-1.3,1.9-.3.7-.5,1.5-.5,2.4s.2,1.6.5,2.3c.4.7.8,1.3,1.4,1.9.6.5,1.2,1,2,1.3.7.3,1.5.6,2.2.6.7,0,1.3-.1,2-.4.7-.3,1.3-.6,1.8-1,.5-.5,1.1-.7,1.8-.7s1.3.2,1.8.7c.5.5.7,1.1.7,1.8s-.1,1-.4,1.4c-.3.4-.5.6-.7.8,0,0-.3.3-.7.5-.3.3-.8.5-1.4.8-.6.3-1.3.5-2.1.7-.8.2-1.8.3-2.8.3-1.5,0-3-.3-4.3-.9-1.4-.6-2.5-1.4-3.5-2.4-1-1-1.8-2.2-2.4-3.6-.6-1.4-.9-2.8-.9-4.4s.3-3,.9-4.3c.6-1.4,1.4-2.5,2.4-3.5,1-1,2.2-1.8,3.5-2.4,1.4-.6,2.8-.9,4.3-.9s2,.1,2.8.3c.8.2,1.5.5,2.1.7.6.3,1,.6,1.4.8.3.3.5.4.6.5.2.2.5.5.8.8.3.3.4.8.4,1.4s-.2,1.3-.7,1.8c-.5.5-1.1.7-1.8.7s-1.3-.2-1.8-.7Z"/>
  <path class="st3" d="M144.9,56.4h4.4c.7,0,1.3.2,1.8.7.5.5.7,1.1.7,1.8s-.2,1.3-.7,1.8c-.5.5-1.1.7-1.8.7h-6.8c-.7,0-1.4-.2-1.9-.7-.5-.5-.8-1-.8-1.8v-17.1c0-.7.2-1.3.7-1.8.5-.5,1.1-.7,1.8-.7s1.3.2,1.8.7c.5.5.7,1.1.7,1.8v14.5h0Z"/>
  <path class="st3" d="M152.2,50.5c0-1.5.3-3,.9-4.4.6-1.4,1.4-2.6,2.4-3.6,1-1,2.2-1.8,3.5-2.4,1.4-.6,2.8-.9,4.3-.9s3,.3,4.3.9c1.4.6,2.5,1.4,3.5,2.4,1,1,1.8,2.2,2.4,3.6.6,1.4.9,2.8.9,4.4s-.3,3-.9,4.4c-.6,1.4-1.4,2.6-2.4,3.6-1,1-2.2,1.8-3.5,2.4-1.4.6-2.8.9-4.3.9s-3-.3-4.3-.9c-1.4-.6-2.5-1.4-3.5-2.4-1-1-1.8-2.2-2.4-3.6-.6-1.4-.9-2.8-.9-4.4ZM157.2,50.5c0,.8.2,1.6.5,2.4.3.7.8,1.4,1.3,2,.6.6,1.2,1,1.9,1.3s1.5.5,2.4.5,1.6-.2,2.4-.5,1.4-.8,1.9-1.3c.6-.6,1-1.2,1.3-2,.3-.7.5-1.5.5-2.4s-.2-1.6-.5-2.4c-.3-.7-.7-1.4-1.3-2-.6-.6-1.2-1-1.9-1.3-.7-.3-1.5-.5-2.4-.5s-1.6.2-2.4.5c-.7.3-1.4.8-1.9,1.3-.6.6-1,1.2-1.3,2-.3.7-.5,1.5-.5,2.4Z"/>
  <path class="st3" d="M177.4,41.9c0-.7.2-1.3.7-1.8.5-.5,1.1-.7,1.8-.7s1.3.2,1.8.7c.5.5.7,1.1.7,1.8v12.6c0,.3,0,.6.2.8.2.3.4.5.6.7.2.2.5.3.8.4s.6.1.8.1c.6,0,1.1-.2,1.5-.6.4-.4.7-.9.7-1.4v-12.7c0-.7.2-1.3.7-1.8.5-.5,1.1-.7,1.8-.7s1.3.2,1.8.7c.5.5.7,1.1.7,1.8v13.2c0,1-.2,1.9-.6,2.7-.4.8-.9,1.5-1.6,2.1-.7.6-1.5,1-2.3,1.4-.9.3-1.8.5-2.7.5s-1.9-.2-2.8-.5c-.9-.3-1.7-.8-2.4-1.4-.7-.6-1.3-1.3-1.7-2.1-.4-.8-.6-1.7-.6-2.7v-13.2h0Z"/>
  <path class="st3" d="M195.7,42.3c0-.8.3-1.5.8-2,.5-.5,1.2-.8,2-.8h4.6c1.5,0,2.9.3,4.3.9,1.3.6,2.5,1.4,3.5,2.4,1,1,1.8,2.2,2.3,3.5.6,1.3.9,2.7.9,4.2s-.3,2.9-.9,4.3c-.6,1.3-1.4,2.5-2.3,3.5-1,1-2.1,1.8-3.5,2.4-1.3.6-2.8.9-4.3.9h-4.7c-.4,0-.7,0-1-.2-.3-.1-.6-.3-.8-.6-.2-.2-.4-.5-.6-.8-.1-.3-.2-.7-.2-1v-16.4h0ZM200.7,44.6v11.8h2.3c.9,0,1.6-.1,2.4-.4.7-.3,1.3-.7,1.9-1.2.5-.5.9-1.1,1.2-1.9.3-.7.4-1.5.4-2.4s-.1-1.6-.4-2.4c-.3-.7-.7-1.3-1.2-1.9-.5-.5-1.1-.9-1.8-1.2-.7-.3-1.5-.4-2.4-.4h-2.5Z"/>
  <path class="st3" d="M112.2,70.3v1.7h1.8v.5h-1.8v1.7h2v.5h-2.7v-5h2.7v.5h-2Z"/>
  <path class="st3" d="M120.7,71c.2.1.4.3.6.6.1.3.2.6.2.9v2.3h-.6v-2.2c0-.4,0-.7-.3-.9-.2-.2-.5-.3-.8-.3s-.6.1-.8.3c-.2.2-.3.5-.3.9v2.1h-.6v-2.2c0-.4,0-.7-.3-.9s-.5-.3-.8-.3-.6.1-.8.3c-.2.2-.3.5-.3.9v2.1h-.6v-3.9h.6v.6c.1-.2.3-.4.5-.5.2-.1.5-.2.7-.2s.6,0,.9.2c.2.1.4.4.6.6.1-.3.3-.5.5-.6.2-.2.5-.2.8-.2s.6,0,.8.2h0Z"/>
  <path class="st3" d="M123.8,71c.3-.1.5-.2.9-.2s.7,0,.9.2c.3.2.5.4.7.7.2.3.2.7.2,1s0,.7-.2,1.1c-.2.3-.4.5-.7.7-.3.2-.6.3-.9.3s-.6,0-.9-.2c-.3-.1-.4-.3-.6-.6v2.6h-.6v-5.7h.6v.7c.1-.2.3-.4.6-.6ZM125.7,72c-.1-.2-.3-.4-.5-.5-.2-.1-.4-.2-.7-.2s-.5,0-.7.2c-.2.1-.4.3-.5.5-.1.2-.2.5-.2.8s0,.6.2.8c.1.2.3.4.5.5.2.1.4.2.7.2s.5,0,.7-.2c.2-.1.4-.3.5-.5.1-.2.2-.5.2-.8s0-.5-.2-.8h0Z"/>
  <path class="st3" d="M128.5,71c.2-.1.5-.2.8-.2v.7h-.2c-.7,0-1.1.4-1.1,1.2v2.1h-.6v-3.9h.6v.6c.1-.2.3-.4.5-.5Z"/>
  <path class="st3" d="M133.5,73h-3.1c0,.4.2.7.4.9.2.2.5.3.9.3s.5,0,.7-.2c.2-.1.3-.3.4-.5h.7c-.1.4-.3.7-.6.9-.3.2-.7.4-1.2.4s-.7,0-1-.2c-.3-.2-.5-.4-.7-.7-.2-.3-.2-.7-.2-1.1s0-.8.2-1.1.4-.5.7-.7.6-.2,1-.2.7,0,1,.2c.3.2.5.4.7.7.2.3.2.6.2,1s0,.3,0,.4h0ZM132.7,71.9c-.1-.2-.3-.3-.4-.4-.2,0-.4-.1-.6-.1-.3,0-.6.1-.8.3-.2.2-.4.5-.4.9h2.5c0-.2,0-.5-.2-.6Z"/>
  <path class="st3" d="M135,74.7c-.2-.1-.4-.2-.6-.4-.1-.2-.2-.4-.2-.6h.7c0,.2.1.4.3.5.2.1.4.2.6.2s.4,0,.6-.2c.1-.1.2-.2.2-.4s0-.3-.2-.4c-.1,0-.4-.2-.7-.2-.3,0-.5-.2-.7-.2-.2,0-.3-.2-.5-.3-.1-.2-.2-.4-.2-.6s0-.4.2-.5c.1-.2.3-.3.5-.4.2,0,.5-.1.7-.1.4,0,.8.1,1,.3.3.2.4.5.4.9h-.6c0-.2,0-.4-.2-.5-.1-.1-.3-.2-.6-.2s-.4,0-.6.1c-.1,0-.2.2-.2.4s0,.2.1.3c0,0,.2.1.3.2.1,0,.3.1.5.2.3,0,.5.2.7.2.2,0,.3.2.4.3.1.1.2.3.2.6,0,.2,0,.4-.2.6-.1.2-.3.3-.5.4-.2,0-.5.1-.7.1s-.6,0-.8-.2h0Z"/>
  <path class="st3" d="M138.1,71.7c.2-.3.4-.5.7-.7.3-.2.6-.2.9-.2s.6,0,.9.2c.3.1.4.3.6.6v-.7h.7v3.9h-.7v-.7c-.1.2-.3.4-.6.6-.3.1-.5.2-.9.2s-.7,0-.9-.3c-.3-.2-.5-.4-.7-.7-.2-.3-.2-.7-.2-1.1s0-.7.2-1h0ZM141,72c-.1-.2-.3-.4-.5-.5-.2-.1-.4-.2-.7-.2s-.5,0-.7.2c-.2.1-.4.3-.5.5-.1.2-.2.5-.2.8s0,.6.2.8c.1.2.3.4.5.5.2.1.4.2.7.2s.5,0,.7-.2c.2-.1.4-.3.5-.5.1-.2.2-.5.2-.8s0-.5-.2-.8h0Z"/>
  <path class="st3" d="M144.8,71.7c.2-.3.4-.5.7-.7.3-.2.6-.2.9-.2s.6,0,.8.2c.3.1.5.3.6.6v-2.1h.7v5.3h-.7v-.7c-.1.2-.3.4-.6.6-.3.1-.5.2-.9.2s-.7,0-.9-.3c-.3-.2-.5-.4-.7-.7-.2-.3-.2-.7-.2-1.1s0-.7.2-1h0ZM147.7,72c-.1-.2-.3-.4-.5-.5-.2-.1-.4-.2-.7-.2s-.5,0-.7.2-.4.3-.5.5c-.1.2-.2.5-.2.8s0,.6.2.8c.1.2.3.4.5.5s.4.2.7.2.5,0,.7-.2c.2-.1.4-.3.5-.5.1-.2.2-.5.2-.8s0-.5-.2-.8h0Z"/>
  <path class="st3" d="M153.1,73h-3.1c0,.4.2.7.4.9.2.2.5.3.9.3s.5,0,.7-.2c.2-.1.3-.3.4-.5h.7c-.1.4-.3.7-.6.9-.3.2-.7.4-1.2.4s-.7,0-1-.2c-.3-.2-.5-.4-.7-.7-.2-.3-.2-.7-.2-1.1s0-.8.2-1.1.4-.5.7-.7.6-.2,1-.2.7,0,1,.2c.3.2.5.4.7.7.2.3.2.6.2,1s0,.3,0,.4h0ZM152.3,71.9c-.1-.2-.3-.3-.4-.4-.2,0-.4-.1-.6-.1-.3,0-.6.1-.8.3-.2.2-.4.5-.4.9h2.5c0-.2,0-.5-.2-.6Z"/>
  <path class="st3" d="M159.3,71.3c-.1-.2-.3-.4-.5-.5-.2-.1-.4-.2-.7-.2s-.6,0-.8.2c-.2.1-.4.3-.5.6-.1.2-.2.5-.2.9s0,.6.2.9c.1.2.3.4.5.6.2.1.5.2.8.2s.7-.1.9-.3c.2-.2.4-.5.5-.8h-1.7v-.8h2.7v.9c0,.3-.2.7-.4,1-.2.3-.5.5-.8.7-.3.2-.7.3-1.2.3s-.9-.1-1.3-.3c-.4-.2-.7-.5-.9-.9-.2-.4-.3-.8-.3-1.3s.1-.9.3-1.3c.2-.4.5-.7.9-.9.4-.2.8-.3,1.3-.3s1,.1,1.5.4c.4.3.7.7.9,1.1h-1.1Z"/>
  <path class="st3" d="M162.8,70.9c.2-.1.4-.2.7-.2v1h-.3c-.3,0-.5,0-.7.2-.2.1-.2.4-.2.8v2h-1v-3.9h1v.6c.1-.2.3-.4.5-.5h0Z"/>
  <path class="st3" d="M167.9,70.8v3.9h-1v-.5c-.1.2-.3.3-.5.4-.2,0-.4.1-.7.1s-.6,0-.8-.2c-.2-.1-.4-.3-.6-.6-.1-.3-.2-.6-.2-.9v-2.3h1v2.2c0,.3,0,.6.2.7.2.2.4.3.6.3s.5,0,.6-.3c.2-.2.2-.4.2-.7v-2.2h1,0Z"/>
  <path class="st3" d="M170.4,70.9c.2-.1.5-.2.8-.2s.6,0,.9.2c.3.2.5.4.6.7.2.3.2.7.2,1.1s0,.8-.2,1.1c-.2.3-.4.6-.6.7-.3.2-.6.3-.9.3s-.5,0-.8-.2-.4-.3-.5-.4v2.4h-1v-5.8h1v.6c.1-.2.3-.3.5-.5h0ZM171.8,72.1c0-.2-.2-.3-.4-.4-.2,0-.3-.1-.5-.1s-.3,0-.5.1-.3.2-.4.4c0,.2-.1.4-.1.6s0,.4.1.6c0,.2.2.3.4.4.2,0,.3.1.5.1s.4,0,.5-.1c.2,0,.3-.2.4-.4,0-.2.1-.4.1-.6s0-.4-.1-.6h0Z"/>
  <path class="st3" d="M174.4,74.6c-.3-.2-.5-.4-.7-.7-.2-.3-.3-.7-.3-1.1s0-.8.3-1.1c.2-.3.4-.5.7-.7.3-.2.6-.3,1-.3s.7,0,1,.3c.3.2.6.4.7.7.2.3.3.7.3,1.1s0,.8-.3,1.1c-.2.3-.4.5-.7.7-.3.2-.7.3-1,.3s-.7,0-1-.3h0ZM175.9,73.8c.2,0,.3-.2.4-.4s.1-.4.1-.6c0-.4,0-.7-.3-.9-.2-.2-.4-.3-.7-.3s-.5.1-.7.3c-.2.2-.3.5-.3.9s0,.7.3.9c.2.2.4.3.7.3s.3,0,.5-.1h0Z"/>
  <path class="st3" d="M183.3,71.3c-.1-.2-.3-.4-.5-.5-.2-.1-.4-.2-.7-.2s-.6,0-.8.2c-.2.1-.4.3-.5.6-.1.2-.2.5-.2.9s0,.6.2.9c.1.2.3.4.5.6.2.1.5.2.8.2s.7-.1.9-.3c.2-.2.4-.5.5-.8h-1.7v-.8h2.7v.9c0,.3-.2.7-.4,1-.2.3-.5.5-.8.7-.3.2-.7.3-1.2.3s-.9-.1-1.3-.3c-.4-.2-.7-.5-.9-.9-.2-.4-.3-.8-.3-1.3s.1-.9.3-1.3c.2-.4.5-.7.9-.9.4-.2.8-.3,1.3-.3s1,.1,1.5.4c.4.3.7.7.9,1.1h-1.1Z"/>
  <path class="st3" d="M189,73.1h-2.9c0,.3.1.5.3.7.2.2.4.2.6.2.4,0,.6-.2.8-.5h1.1c-.1.4-.3.7-.7.9-.3.2-.7.4-1.2.4s-.7,0-1-.3c-.3-.2-.5-.4-.7-.7-.2-.3-.3-.7-.3-1.1s0-.8.2-1.1c.2-.3.4-.5.7-.7.3-.2.6-.2,1-.2s.7,0,1,.2c.3.2.5.4.7.7.2.3.2.6.2,1s0,.3,0,.4h0ZM188,72.4c0-.3,0-.5-.3-.6-.2-.2-.4-.2-.7-.2s-.5,0-.6.2c-.2.1-.3.4-.3.6h1.9Z"/>
  <path class="st3" d="M190.4,74.6c-.3-.1-.5-.3-.6-.5-.1-.2-.2-.4-.2-.7h1c0,.2,0,.3.2.4s.3.1.5.1.3,0,.4-.1c.1,0,.2-.2.2-.3s0-.2-.2-.3c-.1,0-.3-.1-.6-.2-.3,0-.5-.1-.7-.2-.2,0-.3-.2-.5-.3s-.2-.4-.2-.6,0-.4.2-.6c.1-.2.3-.3.5-.4.2-.1.5-.2.8-.2.5,0,.8.1,1.1.4.3.2.4.6.5.9h-1c0-.2,0-.3-.2-.4-.1,0-.3-.1-.5-.1s-.3,0-.4,0c0,0-.1.2-.1.3s0,.2.2.3c.1,0,.3.1.6.2.3,0,.5.1.7.2.2,0,.3.2.5.4.1.2.2.4.2.6,0,.2,0,.4-.2.6-.1.2-.3.3-.5.4-.2.1-.5.2-.8.2s-.6,0-.9-.2h0Z"/>
  <path class="st3" d="M194.7,71.6v1.9c0,.1,0,.2,0,.3,0,0,.2,0,.3,0h.5v.8h-.6c-.8,0-1.3-.4-1.3-1.2v-1.9h-.5v-.8h.5v-1h1v1h.9v.8h-.9,0Z"/>
  <path class="st3" d="M199.3,71c.2.1.4.3.5.6s.2.6.2.9v2.3h-1v-2.2c0-.3,0-.6-.2-.7-.2-.2-.4-.3-.6-.3s-.5,0-.7.3c-.2.2-.2.4-.2.7v2.2h-1v-5.3h1v1.8c.1-.2.3-.3.5-.4.2,0,.4-.1.7-.1s.6,0,.8.2h0Z"/>
  <path class="st3" d="M201.1,70.2c-.1-.1-.2-.2-.2-.4s0-.3.2-.4c.1-.1.3-.2.4-.2s.3,0,.4.2c.1.1.2.2.2.4s0,.3-.2.4c-.1.1-.3.2-.4.2s-.3,0-.4-.2ZM202,70.8v3.9h-1v-3.9h1Z"/>
  <path class="st3" d="M203.6,74.6c-.3-.1-.5-.3-.6-.5-.1-.2-.2-.4-.2-.7h1c0,.2,0,.3.2.4.1,0,.3.1.5.1s.3,0,.4-.1c.1,0,.2-.2.2-.3s0-.2-.2-.3c-.1,0-.3-.1-.6-.2-.3,0-.5-.1-.7-.2-.2,0-.3-.2-.5-.3-.1-.2-.2-.4-.2-.6s0-.4.2-.6c.1-.2.3-.3.5-.4.2-.1.5-.2.8-.2.5,0,.8.1,1.1.4.3.2.4.6.5.9h-1c0-.2,0-.3-.2-.4-.1,0-.3-.1-.5-.1s-.3,0-.4,0c0,0-.1.2-.1.3s0,.2.2.3c.1,0,.3.1.6.2.3,0,.5.1.7.2.2,0,.3.2.5.4.1.2.2.4.2.6,0,.2,0,.4-.2.6-.1.2-.3.3-.5.4-.2.1-.5.2-.8.2s-.6,0-.9-.2h0Z"/>
  <path class="st3" d="M208.4,70.9c.2-.1.5-.2.8-.2s.6,0,.9.2c.3.2.5.4.6.7.2.3.2.7.2,1.1s0,.8-.2,1.1c-.2.3-.4.6-.6.7-.3.2-.6.3-.9.3s-.5,0-.8-.2c-.2-.1-.4-.3-.5-.4v2.4h-1v-5.8h1v.6c.1-.2.3-.3.5-.5h0ZM209.8,72.1c0-.2-.2-.3-.4-.4-.2,0-.3-.1-.5-.1s-.3,0-.5.1c-.2,0-.3.2-.4.4,0,.2-.1.4-.1.6s0,.4.1.6c0,.2.2.3.4.4.2,0,.3.1.5.1s.4,0,.5-.1c.2,0,.3-.2.4-.4,0-.2.1-.4.1-.6s0-.4-.1-.6h0Z"/>
  <path class="st3" d="M211.7,71.7c.2-.3.4-.5.6-.7.3-.2.6-.2.9-.2s.6,0,.8.2c.2.1.4.3.5.4v-.6h1v3.9h-1v-.6c-.1.2-.3.3-.5.5-.2.1-.5.2-.8.2s-.6,0-.9-.3c-.3-.2-.5-.4-.6-.7-.2-.3-.2-.7-.2-1.1s0-.7.2-1.1h0ZM214.4,72.2c0-.2-.2-.3-.4-.4-.2,0-.3-.1-.5-.1s-.4,0-.5.1c-.2,0-.3.2-.4.4s-.1.4-.1.6,0,.4.1.6c0,.2.2.3.4.4.2,0,.3.1.5.1s.4,0,.5-.1c.2,0,.3-.2.4-.4s.1-.4.1-.6,0-.4-.1-.6Z"/>
  <path class="st3" d="M219.8,71.2c.3.3.4.7.4,1.2v2.3h-1v-2.2c0-.3,0-.6-.2-.7-.2-.2-.4-.3-.6-.3s-.5,0-.6.3c-.2.2-.2.4-.2.7v2.2h-1v-3.9h1v.5c.1-.2.3-.3.5-.4.2,0,.4-.1.7-.1.5,0,.8.1,1.1.4h0Z"/>
  <path class="st3" d="M221.3,70.2c-.1-.1-.2-.2-.2-.4s0-.3.2-.4c.1-.1.3-.2.4-.2s.3,0,.4.2c.1.1.2.2.2.4s0,.3-.2.4c-.1.1-.3.2-.4.2s-.3,0-.4-.2ZM222.2,70.8v3.9h-1v-3.9h1Z"/>
  <path class="st3" d="M223.1,71.7c.2-.3.4-.5.6-.7.3-.2.6-.2.9-.2s.6,0,.8.2c.2.1.4.3.5.4v-.6h1v3.9h-1v-.6c-.1.2-.3.3-.5.5-.2.1-.5.2-.8.2s-.6,0-.9-.3c-.3-.2-.5-.4-.6-.7-.2-.3-.2-.7-.2-1.1s0-.7.2-1.1h0ZM225.9,72.2c0-.2-.2-.3-.4-.4-.2,0-.3-.1-.5-.1s-.4,0-.5.1c-.2,0-.3.2-.4.4s-.1.4-.1.6,0,.4.1.6c0,.2.2.3.4.4.2,0,.3.1.5.1s.4,0,.5-.1c.2,0,.3-.2.4-.4,0-.2.1-.4.1-.6s0-.4-.1-.6Z"/>
</svg>