<?xml version="1.0" encoding="utf-8"?>
<!-- Generator: Adobe Illustrator 19.0.0, SVG Export Plug-In . SVG Version: 6.00 Build 0)  -->
<svg version="1.1" id="Capa_1" xmlns="http://www.w3.org/2000/svg" xmlns:xlink="http://www.w3.org/1999/xlink" x="0px" y="0px"
	 viewBox="-388 584.3 64.4 23.2" style="enable-background:new -388 584.3 64.4 23.2;" xml:space="preserve">
<style type="text/css">
	.st0{fill:none;}
	.st1{enable-background:new    ;}
</style>
<rect id="XMLID_15_" x="-386.7" y="585.9" class="st0" width="62.4" height="20.8"/>
<g class="st1">
	<path d="M-383.1,587.6L-383.1,587.6c0.2,0,0.4,0.1,0.5,0.4c0,0.4,0,0.5,0,0.5l-0.1-0.2c0.2,3.4,0.3,6.3,0.3,8.7
		c0.1,0.8,0.1,1.8,0.1,3.2v3.8h2.2c0.2,0,0.3,0.1,0.4,0.3v0.2c0,0.3-0.4,0.4-1.1,0.4h-2.2c-0.2,0-0.3-0.1-0.5-0.4v-0.3
		c0-0.4,0-0.6,0-0.6v-0.3v-3.4c-0.1-4.1-0.2-7.5-0.4-10.3l-0.1-1.6C-383.6,587.7-383.4,587.6-383.1,587.6z"/>
	<path d="M-374.8,588.2l0.1,0.1c-0.2,0-0.3,0-0.3-0.1c1.4,0.1,2.1,0.3,2.1,0.6v0.1c-0.1,0.3-0.3,0.4-0.6,0.4l-1.4-0.1
		c-0.1,0-0.3,0-0.6,0v0.3c0,0.5,0.1,2.5,0.2,6l0,0c0.2,0,0.4,0,0.6,0c0.7,0.1,1.3,0.1,1.7,0.1l0.3,0.4v0.2c0,0.2-0.2,0.4-0.5,0.4
		s-0.7,0-1.4-0.1c-0.4,0-0.7,0-0.8,0l0,0c0,2.2,0.1,4.7,0.3,7.4h0.1c1-0.1,1.6-0.1,1.9-0.1c0.2,0.1,0.4,0.2,0.5,0.4v0.1
		c0,0.1-0.1,0.3-0.4,0.4c-1.2,0-2,0.1-2.2,0.1c-0.6,0-0.9-0.3-0.9-0.8c-0.2-3-0.3-5.5-0.3-7.5V595c-0.2-2.8-0.2-4.6-0.2-5.6
		c-0.1-0.5-0.1-0.8-0.1-0.9l0.4-0.3h0.6C-375.5,588.3-375.2,588.3-374.8,588.2z"/>
	<path d="M-365.5,589.1l0.3,0.4v0.2c0,0.3-0.5,0.4-1.6,0.4h-1.3c0.1,0,0.1,0,0.2,0l0.1,2.1c0,0.2,0,0.3,0,0.3
		c0.3,4.7,0.4,8.1,0.4,10.1c0,0.1,0,0.1,0,0.2c0,0,0,0.1,0,0l0.1,0.3c-0.1,0.2-0.3,0.4-0.4,0.4h-0.2c-0.1,0-0.3-0.1-0.5-0.3
		c0-0.1,0-0.3,0-0.5c0-0.7-0.1-4-0.4-10.1c0-1,0-1.8-0.1-2.6l0.1,0.1l0,0l-1.6,0.1c-0.2-0.2-0.3-0.4-0.3-0.6c0-0.1,0.1-0.3,0.4-0.4
		c0.3,0.1,0.4,0.1,0.4,0.1c0.6-0.1,1-0.1,1.3-0.1h1.9C-366.4,589.2-366,589.2-365.5,589.1z"/>
	<path d="M-361.9,588.5h0.2c0.4,0,0.6,0.9,0.6,2.7v0.6c0,0.6-0.1,2.2-0.3,4.7c0,0.1,0,0.2,0,0.3c0,1.6,0,3,0,3.9v3
		c0,0,0,0.2,0.1,0.5c-0.1,0.4-0.2,0.6-0.5,0.6h-0.2c-0.3,0-0.5-0.5-0.5-1.5c0-5.4,0.1-9.2,0.3-11.2v-1.3c0-0.7,0-1.4-0.1-2
		C-362.3,588.8-362.2,588.6-361.9,588.5z"/>
	<path d="M-353.1,588.3c0.2,0,0.3,0.1,0.4,0.3v0.2c-0.3,2-0.7,4.7-1.1,8c1,1.9,1.8,3.8,2.5,5.5l1,2v0.1c0,0.1-0.1,0.3-0.4,0.4h-0.1
		c-0.4,0-0.7-0.2-0.7-0.7c-0.5-0.8-1.1-2.4-2-4.6c0,0-0.3-0.6-0.8-1.7h0.4c-0.1,0.5-0.4,2-1,4.4c-0.2,1.1-0.4,1.7-0.7,1.7h-0.2
		c-0.2,0-0.3-0.1-0.5-0.4c1-4.2,1.6-6.4,1.6-6.7c-1.4-2.9-2.5-5.5-3.3-7.6V589l0.4-0.3h0.2c0.3,0,0.8,0.9,1.5,2.8l1.9,4.1
		c-0.2,0-0.2-1.3,0.1-3.8c0.2-1.9,0.5-3.1,0.6-3.6h0.2V588.3z"/>
	<path d="M-348.1,588.1c0.4,0.1,1.5,2.6,3.3,7.5h-0.4c0-0.2,0.8-2.6,2.4-7.2h0.6l0.2,0.4v0.5c-0.1,2.8-0.1,5.2-0.1,7.1
		c0,0.7,0.1,3.5,0.4,8.2l-0.5,0.2c-0.4,0-0.7-2.6-0.9-7.9v-5.4h0.4c-1.1,3.4-1.8,5.3-2,5.5c-0.5,0-1.5-2.1-2.9-6.2h0.4v-0.1
		l0.7,13.6l-0.5,0.3c-0.4,0-0.7-0.2-0.7-0.5c-0.3-8.2-0.6-13.4-0.8-15.7L-348.1,588.1z"/>
	<path d="M-338.7,588.5h0.2c0.4,0,0.6,0.9,0.6,2.7v0.6c0,0.6-0.1,2.2-0.3,4.7c0,0.1,0,0.2,0,0.3c0,1.6,0,3,0,3.9v3
		c0,0,0,0.2,0.1,0.5c-0.1,0.4-0.2,0.6-0.5,0.6h-0.2c-0.3,0-0.5-0.5-0.5-1.5c0-5.4,0.1-9.2,0.3-11.2v-1.3c0-0.7,0-1.4-0.1-2
		C-339,588.8-338.9,588.6-338.7,588.5z"/>
	<path d="M-329.8,588.3c0.2,0,0.3,0.1,0.4,0.3v0.2c-0.3,2-0.7,4.7-1.1,8c1,1.9,1.8,3.8,2.5,5.5l1,2v0.1c0,0.1-0.1,0.3-0.4,0.4h-0.1
		c-0.4,0-0.7-0.2-0.7-0.7c-0.5-0.8-1.1-2.4-2-4.6c0,0-0.3-0.6-0.8-1.7h0.4c-0.1,0.5-0.4,2-1,4.4c-0.2,1.1-0.4,1.7-0.7,1.7h-0.2
		c-0.2,0-0.3-0.1-0.5-0.4c1-4.2,1.6-6.4,1.6-6.7c-1.4-2.9-2.5-5.5-3.3-7.6V589l0.4-0.3h0.2c0.3,0,0.8,0.9,1.5,2.8l1.9,4.1
		c-0.2,0-0.2-1.3,0.1-3.8c0.2-1.9,0.5-3.1,0.6-3.6h0.2V588.3z"/>
</g>
</svg>
