<?xml version="1.0" encoding="utf-8"?>
<!-- Generator: Adobe Illustrator 19.0.0, SVG Export Plug-In . SVG Version: 6.00 Build 0)  -->
<svg version="1.1" id="Capa_1" xmlns="http://www.w3.org/2000/svg" xmlns:xlink="http://www.w3.org/1999/xlink" x="0px" y="0px"
	 viewBox="-137 42.1 150 199.4" style="enable-background:new -137 42.1 150 199.4;" xml:space="preserve">
<style type="text/css">
	.st0{fill:#FFFFFF;}
	.st1{fill:url(#SVGID_1_);}
	.st2{fill:#211915;}
</style>
<g>
	<g>
		<g>
			<g>
				<path class="st0" d="M-35.8,127.7c5.4,30.8-7.6,48.5-27.7,48.5c-19,0-32.3-17.9-27.8-48.5c1.8-12.4,12.6-40.5,27.8-40.5
					C-48.3,87.3-38.9,110.1-35.8,127.7z"/>
				<path d="M-63.5,177c-8.2,0-15.3-3.2-20.5-9.2c-7.7-8.9-10.6-23.2-8.1-40.1c0.9-6.2,4-16.3,9-25.1c4.1-7.3,10.8-16,19.6-16
					c7.1,0,13.7,4.8,19.1,14c4.2,7.2,7.7,17.1,9.4,27.1c3,16.8,0.5,31-6.9,39.8C-47.2,173.7-54.6,177-63.5,177z M-63.5,88.1
					c-8,0-14.3,8.3-18.2,15.2c-4.9,8.6-7.9,18.6-8.8,24.6c-2.4,16.5,0.3,30.3,7.7,38.9c4.9,5.7,11.6,8.7,19.3,8.7
					c8.4,0,15.4-3.1,20.4-9.1c7.1-8.5,9.4-22.2,6.5-38.5l0,0c-1.7-9.8-5.1-19.5-9.2-26.5C-52.2,90.4-59,88.1-63.5,88.1z"/>
			</g>
			<g>
				<circle cx="-78.2" cy="121" r="1.1"/>
				<circle cx="-64.2" cy="120.6" r="1"/>
				<circle cx="-49.3" cy="121.9" r="1"/>
				<circle cx="-41.4" cy="132.6" r="1.1"/>
				<circle cx="-55.4" cy="134.4" r="1"/>
				<circle cx="-70.6" cy="133" r="1.1"/>
				<circle cx="-85.5" cy="130.7" r="0.8"/>
				<circle cx="-80.5" cy="145.4" r="0.8"/>
				<circle cx="-65" cy="147.9" r="1.1"/>
				<circle cx="-87.3" cy="150.7" r="0.8"/>
				<circle cx="-73" cy="159.4" r="1"/>
				<circle cx="-57.8" cy="160.4" r="1"/>
				<circle cx="-48.8" cy="148.7" r="1"/>
				<circle cx="-41.6" cy="158.3" r="0.9"/>
				<circle cx="-64.4" cy="171.5" r="0.8"/>
				<circle cx="-48.6" cy="168.5" r="0.9"/>
				<path d="M-73.3,174.4l-0.4-1l-4.6-11.5c-0.3-0.9-1.4-3-2.6-2.8c-1,0.2-2.5,1.7-4.2,4.6l-0.1,0.1l-0.4-0.3l0.1-0.1
					c1.2-2,3-4.6,4.6-4.8c1.9-0.3,3.1,3,3.1,3.2l4.6,11.5l0.4,1L-73.3,174.4z"/>
				<path d="M-81.1,158.9c-0.1-0.1-5.2-13.9-5.4-14.4c-0.2-0.5-0.6-1-1.3-0.9c-0.6,0.1-1.9,1.9-2.6,2.8c-0.4,0.6-0.6,0.9-0.8,1
					l-0.3-0.4c0.1-0.1,0.4-0.5,0.7-0.9c1.1-1.5,2.2-2.9,2.9-3c0.9-0.2,1.6,0.3,1.9,1.2c0.2,0.5,5.2,13.8,5.4,14.4L-81.1,158.9z"/>
				<path d="M-64.9,163.2c-1.6-3.2-6-11.6-7.2-12.5c-0.3-0.2-0.6-0.3-1-0.2c-1.1,0.2-2,1.5-2,1.5l-5.1,7l-0.4-0.3l5.1-7
					c0-0.1,1.1-1.5,2.4-1.7c0.5-0.1,0.9,0,1.3,0.3c1.6,1.2,7.2,12.2,7.4,12.7L-64.9,163.2z"/>
				<path d="M-50.4,163.5c0-0.1-4.9-9.1-6.3-11.6c-0.6-1.1-1-1.3-1.3-1.4c-0.3,0-0.7,0.4-1.1,0.9l-0.1,0.1
					c-0.7,0.8-3.9,7.8-5.5,11.4l-0.5-0.2c0.2-0.4,4.7-10.4,5.5-11.5l0.1-0.1c0.4-0.6,0.9-1.2,1.5-1.1c0.5,0,1.1,0.6,1.7,1.6
					c1.3,2.4,6.2,11.5,6.3,11.6L-50.4,163.5z"/>
				<path d="M-49.7,163.3l-0.5-0.1c0.7-1.3,6.5-12.3,7.7-12.9c1.3-0.7,3.1,0.9,5.4,4.7c0.1,0.1,0.1,0.2,0.1,0.2l-0.4,0.3
					c0,0-0.1-0.1-0.2-0.3c-2.8-4.7-4.2-4.8-4.7-4.5C-43,151.2-47.2,158.6-49.7,163.3z"/>
				<path d="M-55.4,175.6l-0.5-0.2c0-0.1,3.6-8.1,4.6-10.3c1-2.2,1.5-2.4,2.5-2.5h0.2c1.1,0,4.7,4.5,4.8,4.8l-0.5,0.2l0.2-0.1
					l-0.2-0.3c-0.3-0.6-3.7-4.2-4.4-4.2c0,0-1.3,0-2.2,2C-52,167.3-55.4,175.6-55.4,175.6z"/>
				<path d="M-56.4,175.6c0-0.1-4.8-8.3-6.7-11.1c-0.5-0.8-1.1-1.2-1.7-1.2c-1.1,0-1.9,1.1-1.9,1.1l-6.4,9.8l-0.4-0.3l6.4-10
					c0.1-0.1,1-1.5,2.3-1.5l0,0c0.8,0,1.5,0.7,2.2,1.6c2,2.8,6.7,11.1,6.8,11.2L-56.4,175.6z"/>
				<path d="M-72.6,150.4c0-0.1-4-11.2-5.5-14c-0.4-0.7-0.9-1.2-1.3-1.2s-1,0.1-1.8,1.1l0,0c-0.1,0.1-3.7,4.7-5.6,7.1l-0.4-0.3
					c0.6-0.7,5.5-7,5.6-7.2l0,0c0.8-0.9,1.5-1.4,2.3-1.3c0.7,0.1,1.3,0.6,1.7,1.5c1.5,2.8,5.4,13.6,5.5,14L-72.6,150.4z"/>
				<path d="M-87.1,143.2c-1.8-5.5-4.5-13.7-4.6-14.1l0.4-0.3c0.1,0.2,3,9,4.7,14.2L-87.1,143.2z"/>
				<path d="M-79.1,135.3c0-0.1-2.9-9.1-4.4-11.6c-0.4-0.6-0.8-0.9-1.2-1c-0.7,0-1.4,0.8-1.6,1.1c-1.9,2.6-4.5,6.2-4.6,6.3v-0.8
					l0.1,0.2l-0.2-0.2c0.2-0.2,2.6-3.6,4.2-5.8c0-0.1,1-1.3,2.1-1.3c0.6,0,1.2,0.4,1.7,1.2c1.5,2.5,4.3,11.3,4.4,11.7L-79.1,135.3z"
					/>
				<path d="M-42.3,149.2l-0.5-0.2c0,0,1.4-4.1,2.8-7.5c0.8-2,1.8-3,2.8-3.1c1.5-0.1,2.6,1.8,2.7,1.9l-0.4,0.3c0,0-1-1.7-2.2-1.6
					c-0.8,0.1-1.7,1-2.4,2.8C-40.9,145.1-42.3,149.1-42.3,149.2z"/>
				<path d="M-42.1,150.6l-4.3-9.7c0,0-0.8-1.7-2-1.8c-0.7-0.1-1.4,0.4-2.2,1.5c-0.4,0.6-0.9,1.3-1.4,2c-2.2,3.1-5.2,7.3-5.3,7.8
					h-0.5c0-0.5,1.4-2.5,5.4-8.1c0.5-0.7,1-1.4,1.4-2c0.9-1.2,1.7-1.8,2.6-1.7c1.5,0.1,2.4,2.1,2.4,2.1l4.3,9.7L-42.1,150.6z"/>
				<path d="M-57.3,149.5c0-0.1-2.5-6.3-4.9-10.1c-0.7-1.1-1.4-1.6-2.2-1.6c-1.2,0-2.1,1.5-2.2,1.5c-2.1,3.2-6,9.4-6.1,9.6l-0.5-0.2
					c0.1-0.2,5.5-8.5,6.1-9.5c0-0.1,1.1-1.6,2.6-1.6l0,0c0.9,0,1.8,0.5,2.6,1.7c2.4,3.9,4.9,10.1,4.9,10.1L-57.3,149.5z"/>
				<path d="M-63.9,137.7c0-0.1-2.7-8.3-4.9-12.7c-0.6-1.2-1.3-1.5-2-1.5l0,0c-1.2,0-2.1,1.5-2.1,1.6l-2.9,4.9c-3,5.2-3,5.1-3.2,5.1
					v-0.3l-0.2-0.2c0.1-0.2,5.8-9.9,5.8-10s1.1-2.2,2.6-2.2c0.9,0,1.7,0.7,2.4,2.1c2.3,4.4,4.9,13,5,13.1L-63.9,137.7z"/>
				<path d="M-84.7,122.6c-0.7-2.6-3.5-8.8-3.5-8.8l0.5-0.2c0.1,0.3,2.8,6.3,3.5,8.9L-84.7,122.6z"/>
				<path d="M-63.5,138l-0.4-0.3c0.2-0.2,7.1-11.4,7.2-11.6s1-2.2,2.3-2.1c0.7,0,1.3,0.8,1.8,2.2c1.5,4.5,4.5,10.8,4.5,10.9
					l-0.5,0.2c0-0.1-3-6.5-4.5-11c-0.4-1.2-0.8-1.8-1.3-1.9c-0.7,0-1.6,1.3-1.8,1.8C-56.6,126.9-63.3,137.8-63.5,138z"/>
				<path d="M-71.1,122.8c-0.6,0-5.3-9.6-5.4-9.7c-0.5-1.1-0.8-1.2-0.9-1.2c-0.2,0-0.3,0.2-0.4,0.3c-2.6,3.6-6.5,9.1-6.7,9.5
					l-0.2-0.1l-0.3,0.1c-0.1-0.2-0.1-0.4,6.8-9.8c0.1-0.2,0.4-0.6,0.8-0.6c0.5,0,0.9,0.5,1.4,1.5c1.1,2.5,4.7,9.1,5.1,9.5l-0.2,0.1
					L-71.1,122.8z"/>
				<path d="M-48.8,139l-0.5-0.2l4.6-11.9c0-0.1,0.8-1.8,2.1-2c0.7-0.1,1.4,0.3,2.1,1.1c2.2,2.6,5,5.5,5,5.5l-0.4,0.3
					c0,0-2.8-2.9-5-5.5c-0.6-0.7-1.1-1-1.6-0.9c-1,0.1-1.7,1.7-1.7,1.7L-48.8,139z"/>
				<path d="M-42.5,125.2l-0.5-0.1c0.4-2.6,1.7-6,2.5-8c0.3-0.8,0.6-1.5,0.6-1.7v-0.6l0.5,0.4c0.1,0.2,0,0.3-0.6,2
					C-40.8,119.4-42.1,122.7-42.5,125.2z"/>
				<path d="M-42.9,125.1l-5.4-12.4l-1.8-0.1c-1.7,4.3-4.5,11.4-4.8,11.7l-0.3-0.4l0.2,0.2l-0.2-0.2c0.3-0.4,3-7.2,4.7-11.7l0.1-0.2
					l2.5,0.2l5.5,12.7L-42.9,125.1z"/>
				<path d="M-54.9,124.5c-0.3-0.6-0.7-1.5-1.3-2.8c-1.7-3.7-5.3-11.8-6.5-11.8h-0.3c-1.8,0.1-8.2,11.8-8,12.7l-0.4-0.5l0.1,0.2
					c-0.1-0.1-0.4-0.5,2-4.6c5-8.3,6.2-8.3,6.5-8.2c1.4,0.1,4,5.3,7,11.6c0.6,1.3,1.2,2.5,1.5,3.1L-54.9,124.5z"/>
			</g>
		</g>
		<g>
			<g>
				<g>
					<path class="st0" d="M-40.7,68.8c0,0-0.9,10.4-3.4,16.8c-2.5,6.5-4.8,10.2-4.8,10.2l-12.3,4.3l-1.7-7.9l4.3-13.5
						c0,0,6.1-6.8,10.5-8.4C-43.7,68.8-40.7,68.8-40.7,68.8z"/>
					<path d="M-61,100.9c-0.1,0-0.3,0-0.4-0.1c-0.2-0.1-0.3-0.3-0.4-0.5l-1.7-7.9c0-0.1,0-0.3,0-0.4l4.3-13.5c0-0.1,0.1-0.2,0.2-0.3
						c0.3-0.3,6.3-7,10.8-8.6s7.5-1.6,7.6-1.6c0.2,0,0.4,0.1,0.6,0.3c0.1,0.2,0.2,0.4,0.2,0.6c0,0.4-0.9,10.5-3.4,17
						s-4.8,10.2-4.9,10.4s-0.2,0.3-0.4,0.3l-12.3,4.3C-60.8,100.9-60.9,100.9-61,100.9z M-61.9,92.3l1.5,6.8l11.2-3.9
						c0.5-0.9,2.5-4.4,4.6-9.9c2-5.2,2.9-13.1,3.2-15.7c-1.2,0.1-3.4,0.4-6.3,1.5c-3.8,1.4-9.2,7.1-10.1,8L-61.9,92.3z"/>
				</g>
				<circle cx="-47" cy="77.6" r="1.1"/>
				<path d="M-48.8,82c0,0-0.2,0.5-0.4,1c-0.2,0.6-0.5,1.1-1,2.1c-0.5,0.9-1,2-1.6,3.1s-1.3,2.3-2,3.5c-0.7,1.1-1.5,2.4-2.1,3.4
					c-0.7,1-1.4,2.1-2,2.9c-0.7,0.8-1.2,1.5-1.6,1.9c-0.2,0.2-0.4,0.3-0.6,0.4c-0.1,0.1-0.2,0.1-0.2,0.1s0.1-0.1,0.2-0.1
					c0.1-0.1,0.3-0.3,0.5-0.5c0.4-0.4,0.9-1.2,1.5-2s1.2-1.9,1.9-2.9c0.6-1.1,1.4-2.3,2.1-3.4c1.4-2.4,2.8-4.8,3.8-6.5
					C-49.7,84.1-48.8,82-48.8,82z"/>
			</g>
			<g>
				<g>
					<path class="st0" d="M-31.1,107.9c0,0-10-7-24.6-7.4c-14.6-0.5-3.9,8.7-3.9,8.7s6.7,5.1,18.1,3.2
						C-30.2,110.4-31.1,107.9-31.1,107.9z"/>
					<path d="M-46.6,113.6c-8.4,0-13.2-3.6-13.4-3.8c-0.5-0.5-5-4.4-3.9-7.4c0.7-1.9,3.5-2.8,8.3-2.6c14.7,0.5,24.6,7.3,25,7.6
						c0.1,0.1,0.2,0.2,0.3,0.4c0.1,0.1,0.2,0.6-0.2,1.3c-1,1.7-4.7,3.1-10.9,4.2C-43.3,113.5-45,113.6-46.6,113.6z M-56.7,101.3
						c-4.5,0-5.6,1-5.8,1.7c-0.6,1.5,1.8,4.3,3.4,5.6c0,0,6.5,4.9,17.4,3c7.5-1.3,9.3-2.8,9.7-3.3c-2.1-1.3-11.2-6.6-23.7-7
						C-56,101.3-56.4,101.3-56.7,101.3z"/>
				</g>
				<ellipse cx="-41.1" cy="107.9" rx="1" ry="1.2"/>
				<path d="M-46.2,108.6c0,0-0.9,0.2-2.3,0.4c-0.7,0.1-1.5,0.2-2.4,0.2c-0.9,0.1-1.8,0.1-2.8,0c-0.5,0-0.9-0.1-1.4-0.1
					s-0.9-0.1-1.4-0.2c-0.4-0.1-0.9-0.1-1.3-0.2c-0.4-0.1-0.8-0.2-1.1-0.3c-0.3-0.1-0.7-0.2-0.9-0.3c-0.3-0.1-0.5-0.2-0.7-0.3
					c-0.4-0.2-0.6-0.3-0.6-0.3s0.2,0.1,0.6,0.2c0.2,0.1,0.4,0.1,0.7,0.2c0.3,0.1,0.6,0.1,0.9,0.2c0.3,0.1,0.7,0.1,1.1,0.2
					c0.4,0.1,0.8,0.1,1.3,0.2c0.4,0.1,0.9,0.1,1.3,0.1c0.5,0,0.9,0.1,1.4,0.1s0.9,0,1.4,0s0.9,0,1.4,0c0.9,0,1.7,0,2.4-0.1
					c0.7,0,1.3-0.1,1.7-0.1C-46.4,108.7-46.2,108.6-46.2,108.6z"/>
			</g>
			<g>
				<g>
					<path class="st0" d="M-39.5,89.9c0.1-0.4-19.6,5.6-22.1,12.8c-2.6,7.3,0,7,0,7s8.8,0.4,13.3-4.4
						C-43.7,100.6-41.5,98.5-39.5,89.9z"/>
					<path d="M-61.1,110.5c-0.3,0-0.5,0-0.6,0c-0.4,0-1-0.2-1.4-0.7c-0.9-1.2-0.7-3.6,0.6-7.3c1.1-3.2,5.3-6.4,12.2-9.6
						c4-1.8,10-4,10.9-3.7c0.4,0.1,0.6,0.5,0.5,0.9l0,0c-2,8.4-4.3,10.8-8.5,15.2l-0.5,0.5C-51.8,110.2-58.9,110.5-61.1,110.5z
						 M-61.6,109L-61.6,109c0.1,0,8.5,0.3,12.8-4.2l0.5-0.5c3.9-4.1,5.9-6.3,7.8-13.3c-4.1,1.2-18.3,6.4-20.4,12.1
						c-1.6,4.6-1,5.7-0.9,5.9C-61.7,108.9-61.7,109-61.6,109C-61.7,109-61.7,109-61.6,109z"/>
				</g>
				<circle cx="-47.2" cy="98.4" r="1.2"/>
				<path d="M-54.5,102.6c0,0-0.1,0.2-0.2,0.4c-0.1,0.3-0.4,0.6-0.6,1s-0.6,0.8-1,1.3c-0.2,0.2-0.4,0.5-0.7,0.7
					c-0.2,0.3-0.4,0.5-0.8,0.7c-0.2,0.2-0.5,0.5-0.8,0.6c-0.2,0.2-0.5,0.4-0.9,0.5c-0.3,0.2-0.5,0.3-0.8,0.4
					c-0.3,0.1-0.5,0.2-0.8,0.2c-0.2,0.1-0.5,0.1-0.7,0.1c-0.2,0.1-0.4,0.1-0.5,0.1c-0.3,0-0.5,0-0.5,0s0.2,0,0.4-0.1
					c0.1,0,0.3-0.1,0.5-0.1c0.2-0.1,0.4-0.1,0.6-0.2c0.2-0.1,0.4-0.2,0.7-0.3c0.2-0.2,0.5-0.3,0.7-0.4s0.5-0.4,0.8-0.5
					c0.2-0.2,0.5-0.4,0.8-0.6c0.5-0.5,1-0.9,1.4-1.3c0.4-0.5,0.8-0.8,1.1-1.2C-55,103.2-54.5,102.6-54.5,102.6z"/>
			</g>
			<g>
				<g>
					<path class="st0" d="M-82.2,70.6c0,0,15,5.9,20.7,10.7s-4.2,22.4-4.2,22.4L-78,94.6c0,0-3.9-6.6-4.1-13.3
						C-82.5,74.7-82.2,70.6-82.2,70.6z"/>
					<path d="M-65.7,104.5c-0.2,0-0.3-0.1-0.5-0.2l-12.3-9.1c-0.1-0.1-0.2-0.1-0.2-0.2c-0.2-0.3-4-6.8-4.3-13.6
						c-0.3-6.7,0-10.7,0-10.8c0-0.2,0.1-0.5,0.4-0.6c0.2-0.1,0.5-0.2,0.7-0.1c0.6,0.2,15.1,6,20.9,10.8c6.1,5.2-3.6,22.6-4.1,23.4
						c-0.1,0.2-0.3,0.3-0.5,0.4C-65.6,104.5-65.7,104.5-65.7,104.5z M-77.5,94.1l11.5,8.5c2.8-5.2,8.1-17.2,4-20.6
						c-4.7-4-16-8.8-19.5-10.2c-0.1,1.6-0.1,5,0.1,9.5C-81.2,87.2-78,93.1-77.5,94.1z"/>
				</g>
				<circle cx="-78.5" cy="78.5" r="1"/>
				<path d="M-76,83.5c0,0,0.1,0.2,0.4,0.5c0.2,0.3,0.6,0.7,1,1.3c0.4,0.5,0.8,1.2,1.3,1.9s0.9,1.4,1.4,2.2s0.9,1.5,1.3,2.2
					s0.8,1.4,1.1,2c0.3,0.6,0.5,1.1,0.7,1.5c0.1,0.4,0.2,0.6,0.2,0.6s-0.1-0.2-0.3-0.5c-0.2-0.3-0.5-0.8-0.9-1.4
					c-0.4-0.6-0.8-1.2-1.2-1.9c-0.4-0.7-0.9-1.4-1.4-2.2c-0.5-0.7-0.9-1.5-1.4-2.2c-0.4-0.7-0.8-1.4-1.2-1.9
					c-0.3-0.6-0.6-1.1-0.8-1.4C-75.9,83.7-76,83.5-76,83.5z"/>
			</g>
			<g>
				<g>
					<path class="st0" d="M-93.1,109.1c0,0,4.3-6.7,13.5-10.6s11.5,8.4,11.5,8.4s-2.7,4.5-10.7,5.7C-86.9,113.8-91.5,112-93.1,109.1
						z"/>
					<path d="M-83.5,113.7c-5.1,0-8.8-1.5-10.2-4.2c-0.1-0.2-0.1-0.5,0-0.8c0.2-0.3,4.5-7,13.8-10.9c2.6-1.1,4.9-1.1,7,0
						c4.3,2.3,5.6,8.7,5.6,9c0,0.2,0,0.4-0.1,0.5c-0.1,0.2-3,4.9-11.3,6.1C-80.4,113.6-82,113.7-83.5,113.7z M-92.2,109.2
						c1.8,2.6,6.7,3.6,13.2,2.7c6.5-0.9,9.3-4.2,10-5.1c-0.3-1.2-1.6-5.9-4.8-7.6c-1.6-0.9-3.5-0.8-5.6,0.1
						C-86.9,102.5-91.1,107.7-92.2,109.2z"/>
				</g>
				<circle cx="-84.8" cy="108.6" r="1.2"/>
				<path d="M-81.6,107.4c0,0,0.9,0.1,2.2,0.2c0.7,0,1.4,0.1,2.3,0.2c0.8,0.1,1.7,0.1,2.6,0.2c0.4,0,0.9,0,1.3,0.1
					c0.4,0,0.9,0,1.3,0s0.8,0,1.2,0c0.4,0,0.7,0,1.1,0c0.3,0,0.6,0,0.9,0s0.5,0,0.7,0c0.4,0,0.6,0,0.6,0s-0.2,0-0.6,0.1
					s-0.9,0.2-1.6,0.2s-1.5,0.1-2.3,0.1s-1.7,0-2.6-0.1s-1.8-0.1-2.6-0.2c-0.8-0.1-1.6-0.2-2.3-0.3c-0.7-0.1-1.2-0.2-1.6-0.3
					C-81.3,107.5-81.6,107.4-81.6,107.4z"/>
			</g>
			<g>
				<g>
					<path class="st0" d="M-89.1,88.1c0,0,12.2,0.3,22.1,10.4c0.4,0.4,3.7,11,3.7,11s-4.9,1.6-14.2-5.8S-89.1,88.1-89.1,88.1z"/>
					<path d="M-64.6,110.5c-2.2,0-6.7-0.9-13.3-6.1c-9.4-7.5-11.8-15.7-11.9-16.1c-0.1-0.2,0-0.5,0.1-0.7c0.2-0.2,0.4-0.3,0.6-0.3
						c0.5,0,12.7,0.4,22.7,10.7c0.1,0.1,0.5,0.5,3.9,11.3c0.1,0.4-0.1,0.8-0.5,1C-63,110.3-63.6,110.5-64.6,110.5z M-87.9,88.9
						c1,2.4,4,8.6,11,14.2c6.7,5.4,11,5.8,12.7,5.8c-1.4-4.5-2.9-9.2-3.3-9.9C-75.4,91-84.7,89.3-87.9,88.9z"/>
				</g>
				<circle cx="-78.4" cy="96.6" r="1.1"/>
				<path d="M-75,100.2c0,0,0.1,0,0.2,0s0.3,0.1,0.4,0.2c0.4,0.2,0.9,0.5,1.5,1c0.6,0.4,1.3,0.9,2,1.5s1.5,1.2,2.2,1.8
					s1.5,1.3,2.1,1.9c0.7,0.6,1.3,1.2,1.8,1.7s0.9,1,1.2,1.3c0.3,0.3,0.4,0.5,0.4,0.5s-0.2-0.2-0.5-0.5s-0.8-0.7-1.3-1.2
					s-1.2-1-1.9-1.6c-0.7-0.6-1.4-1.2-2.2-1.8c-1.5-1.2-2.9-2.5-4-3.4c-0.6-0.5-1-0.9-1.3-1.1c-0.2-0.1-0.3-0.2-0.4-0.3
					C-74.9,100.2-75,100.2-75,100.2z"/>
			</g>
			<g>
				<g>
					<path class="st0" d="M-63.1,55.6c0,0,8.6,15.7,6.7,29.7s-6.8,24.2-6.8,24.2s-6.5-10.6-5.9-25.9S-63.1,55.6-63.1,55.6z"/>
					<path d="M-63.2,110.3c-0.3,0-0.5-0.1-0.7-0.4c-0.3-0.4-6.6-11-6.1-26.4c0.5-15.3,6.1-28.1,6.1-28.3c0.1-0.3,0.4-0.5,0.7-0.5
						c0.3,0,0.6,0.1,0.7,0.4c0.4,0.7,8.7,16.1,6.8,30.2c-1.9,13.9-6.9,24.3-6.9,24.4C-62.7,110.1-62.9,110.3-63.2,110.3L-63.2,110.3
						z M-63,57.5c-1.5,3.8-4.9,14.2-5.3,26.1c-0.4,11.8,3.4,20.9,5.1,24.1c1.4-3.3,4.7-11.8,6.1-22.6C-55.7,74.1-61,61.7-63,57.5z"
						/>
				</g>
				<g>
					
						<linearGradient id="SVGID_1_" gradientUnits="userSpaceOnUse" x1="-63.2054" y1="-172.8377" x2="-63.2054" y2="-193.7066" gradientTransform="matrix(1 0 0 1 0 281.74)">
						<stop  offset="0" style="stop-color:#006B9D"/>
						<stop  offset="4.726030e-04" style="stop-color:#006C9D"/>
						<stop  offset="1.622185e-02" style="stop-color:#00879D"/>
						<stop  offset="3.227448e-02" style="stop-color:#009A9D"/>
						<stop  offset="4.867715e-02" style="stop-color:#00A59D"/>
						<stop  offset="6.596584e-02" style="stop-color:#00A99D"/>
						<stop  offset="0.1156" style="stop-color:#2BB588"/>
						<stop  offset="0.2064" style="stop-color:#75C964"/>
						<stop  offset="0.2877" style="stop-color:#AFD947"/>
						<stop  offset="0.3568" style="stop-color:#D9E432"/>
						<stop  offset="0.4108" style="stop-color:#F2EB26"/>
						<stop  offset="0.4431" style="stop-color:#FCEE21"/>
						<stop  offset="0.7767" style="stop-color:#F7931E"/>
						<stop  offset="0.7825" style="stop-color:#F58F1F"/>
						<stop  offset="0.8516" style="stop-color:#DF6225"/>
						<stop  offset="0.9133" style="stop-color:#CE4229"/>
						<stop  offset="0.9649" style="stop-color:#C52E2C"/>
						<stop  offset="1" style="stop-color:#C1272D"/>
					</linearGradient>
					<path class="st1" d="M-63.4,108.9c0.5-4.4,0.2-20.9,0.2-20.9"/>
					<path d="M-63.4,108.9c0,0,0-0.3,0-0.9c0-0.6,0-1.4,0-2.4c0-2,0-4.6,0-7.2c0-1.3,0-2.6,0-3.8s0-2.4,0.1-3.3c0-1,0.1-1.8,0.1-2.4
						c0-0.6,0-0.9,0-0.9s0,0.3,0.1,0.9c0,0.6,0.1,1.4,0.1,2.4s0.1,2.1,0.1,3.3s0,2.5,0,3.8s0,2.6-0.1,3.8c0,1.2-0.1,2.4-0.2,3.3
						c-0.1,1-0.1,1.8-0.2,2.4C-63.3,108.6-63.4,108.9-63.4,108.9z"/>
				</g>
				<circle cx="-62.8" cy="80" r="1.3"/>
			</g>
		</g>
	</g>
	<g id="XMLID_468_">
		<path id="XMLID_476_" class="st2" d="M-123.9,188.8h0.1c0.4,0,0.7,0.3,1.1,0.8c0.1,0.3,0.1,0.7,0.1,1.2c0,0,0.5,13.7,0.5,18.9
			c0.2,1.7,0.3,4,0.3,7v8.6h5c0.4,0,0.7,0.2,1,0.7v0.4c0,0.6-0.8,0.9-2.4,0.9h-4.8c-0.4,0-0.7-0.3-1.1-0.8v-0.8c0-0.8,0-1.3,0.1-1.3
			l-0.1-0.7V216c-0.3-9.2-0.6-16.8-0.8-22.9l-0.3-3.5C-125.1,189.2-124.7,188.8-123.9,188.8z"/>
		<path id="XMLID_475_" class="st2" d="M-105.4,190.4c0,0,4.1,0.5,4.1,1.1v0.2c-0.2,0.6-0.6,1-1.2,1l-3-0.3c-0.1,0-0.6,0-1.3,0.1
			l0.1,0.7c0,1.1,0.2,5.6,0.5,13.3h0.1c0.5,0,0.9,0,1.3-0.1c1.6,0.1,2.9,0.2,3.9,0.2l0.6,0.8v0.4c0,0.6-0.4,0.8-1.1,0.8
			c-0.6,0-1.6-0.1-3-0.2c-0.9,0.1-1.5,0.1-1.8,0.1v-0.1c0,4.9,0.2,10.4,0.7,16.5c0.1,0,0.1,0,0.1,0.1c2.2-0.1,3.6-0.2,4.2-0.2
			c0.5,0.2,0.9,0.5,1.1,0.9v0.2c0,0.3-0.3,0.6-0.8,0.9c-2.8,0.1-4.4,0.1-5,0.2c-1.3,0-2-0.6-2-1.9c-0.5-6.7-0.7-12.2-0.7-16.6v-3.3
			c-0.3-6.1-0.5-10.3-0.5-12.4c-0.2-1-0.3-1.7-0.3-2l0.8-0.6h1.2C-107,190.4-106.4,190.4-105.4,190.4z"/>
		<path id="XMLID_474_" class="st2" d="M-84.7,192.3l0.7,0.8v0.4c0,0.6-1.2,1-3.6,1c0,0-2.6,0.1-2.6,0l0.2,4.7
			c-0.1,0.4-0.1,0.7-0.1,0.7c0.6,10.5,0.9,18.1,0.9,22.6c0.1,0.1,0.1,0.3,0.1,0.5c-0.1,0.1-0.1,0.1-0.1,0.1l0.1,0.7
			c-0.2,0.6-0.6,0.8-1,0.8h-0.3c-0.3,0-0.7-0.2-1.1-0.7c0-0.2,0-0.6,0.1-1.2c0-1.5-0.3-9-0.9-22.6c0-2.2,0-4-0.2-5.6l0,0l-3.5,0.3
			c-0.5-0.5-0.7-0.9-0.7-1.4c0-0.3,0.3-0.6,1-0.9c0.6,0.2,0.9,0.2,0.9,0.2c1.3-0.1,2.3-0.2,2.8-0.2h4.3
			C-86.8,192.5-85.8,192.4-84.7,192.3z"/>
		<path id="XMLID_473_" class="st2" d="M-76.7,190.8h0.4c0.9,0,1.4,2,1.4,6.1v1.4c0,1.4-0.2,4.9-0.6,10.6c0,0.2,0,0.5,0.1,0.8
			c-0.1,3.7-0.1,6.6-0.1,8.7v6.8c0,0.1,0.1,0.4,0.2,1c-0.1,0.9-0.5,1.3-1.1,1.3h-0.4c-0.7,0-1.1-1.1-1.1-3.3c0-12.1,0.2-20.4,0.6-25
			v-2.9c0-1.6-0.1-3.1-0.3-4.4C-77.6,191.5-77.3,191.2-76.7,190.8z"/>
		<path id="XMLID_472_" class="st2" d="M-57.3,189.8c0.4,0,0.7,0.2,1,0.7v0.4c-0.7,4.5-1.5,10.5-2.5,17.9c2.2,4.3,4.1,8.5,5.6,12.4
			l2.2,4.4v0.2c0,0.3-0.3,0.6-0.9,0.9h-0.3c-0.9,0-1.5-0.5-1.6-1.5c-1-1.8-2.6-5.3-4.6-10.3c-0.1-0.2-0.1-0.1-1.2-2.5l0,0
			c-0.2,1.1-0.7,3.3-2.1,8.7c-0.4,2.5-0.9,3.7-1.5,3.7h-0.5c-0.4,0-0.7-0.3-1.1-0.9c2.3-9.4,3.5-14.3,3.5-14.9
			c-3.2-6.6-5.7-12.2-7.4-16.9v-0.4l0.8-0.6h0.5c0.6,0,1.7,2.1,3.2,6.2l3.8,7.6c0,0,0-1.4,0.7-7.1c0.6-4.2,1-6.9,1.4-8.1
			L-57.3,189.8L-57.3,189.8z"/>
		<path id="XMLID_471_" class="st2" d="M-46,190.1c0.8,0.3,2.8,4.5,6.8,15.5l0,0c0-0.5,1.4-4.5,5-14.8h1.3l0.5,0.9v1.1
			c-0.2,6.2-0.3,11.5-0.3,15.8c0,1.7,0.3,7.7,0.9,18.2l-1.1,0.5c-0.9,0-1.6-5.9-2-17.6v-9.6l0,0c-2.5,7.7-3.1,9.1-3.7,9.5
			c-1.1-0.1-5.6-11.1-5.6-11.1l1.4,27.5l-1.1,0.6c-1,0-1.5-0.4-1.5-1.1c-0.6-18.2-1.2-29.9-1.9-34.9L-46,190.1z"/>
		<path id="XMLID_470_" class="st2" d="M-24.9,190.8h0.4c0.9,0,1.4,2,1.4,6.1v1.4c0,1.4-0.2,4.9-0.6,10.6c0,0.2,0,0.5,0.1,0.8
			c-0.1,3.7-0.1,6.6-0.1,8.7v6.8c0,0.1,0.1,0.4,0.2,1c-0.1,0.9-0.5,1.3-1.1,1.3H-25c-0.7,0-1.1-1.1-1.1-3.3c0-12.1,0.2-20.4,0.6-25
			v-2.9c0-1.6-0.1-3.1-0.3-4.4C-25.8,191.5-25.5,191.2-24.9,190.8z"/>
		<path id="XMLID_469_" class="st2" d="M-5.2,190.4c0.4,0,0.7,0.2,1,0.7v0.4c-0.7,4.5-1.5,10.5-2.5,17.9c2.2,4.3,4.1,8.5,5.6,12.4
			l2.2,4.4v0.2c0,0.3-0.3,0.6-0.9,0.9h-0.3c-0.9,0-1.5-0.5-1.6-1.5c-1-1.8-2.6-5.3-4.5-10.3c-0.1,0-1.3-2.5-1.3-2.5
			c-0.2,1.1-0.7,3.3-2,8.7c-0.4,2.5-0.9,3.7-1.5,3.7h-0.5c-0.4,0-0.7-0.3-1.1-0.9c2.3-9.4,3.5-14.3,3.5-14.9
			c-3.2-6.6-5.7-12.2-7.4-16.9v-0.4l0.8-0.6h0.5c0.6,0,1.7,2.1,3.2,6.2l3.9,8.5c0-0.3-0.1-2.3,0.5-8c0.6-4.2,1-6.9,1.4-8.1
			L-5.2,190.4L-5.2,190.4L-5.2,190.4z"/>
	</g>
</g>
</svg>
